<?xml version="1.0" standalone="yes"?>

<svg version="1.1" viewBox="0.0 0.0 960.0 720.0" fill="none" stroke="none" stroke-linecap="square" stroke-miterlimit="10" xmlns="http://www.w3.org/2000/svg" xmlns:xlink="http://www.w3.org/1999/xlink"><clipPath id="p.0"><path d="m0 0l960.0 0l0 720.0l-960.0 0l0 -720.0z" clip-rule="nonzero"></path></clipPath><g clip-path="url(#p.0)"><path fill="#000000" fill-opacity="0.0" d="m0 0l960.0 0l0 720.0l-960.0 0z" fill-rule="nonzero"></path><path fill="#4a86e8" fill-opacity="0.6962" d="m0 120.0024l0 0c0 -66.2755 53.726906 -120.0024 120.0024 -120.0024l719.99524 0c31.8266 0 62.34973 12.643074 84.85449 35.14789c22.504822 22.504818 35.14795 53.0279 35.14795 84.854515l0 479.9952c0 66.27545 -53.72693 120.00238 -120.00244 120.00238l-719.99524 0l0 0c-66.2755 0 -120.0024 -53.72693 -120.0024 -120.00238z" fill-rule="nonzero"></path><path stroke="#000000" stroke-width="1.0" stroke-linejoin="round" stroke-linecap="butt" d="m0 120.0024l0 0c0 -66.2755 53.726906 -120.0024 120.0024 -120.0024l719.99524 0c31.8266 0 62.34973 12.643074 84.85449 35.14789c22.504822 22.504818 35.14795 53.0279 35.14795 84.854515l0 479.9952c0 66.27545 -53.72693 120.00238 -120.00244 120.00238l-719.99524 0l0 0c-66.2755 0 -120.0024 -53.72693 -120.0024 -120.00238z" fill-rule="nonzero"></path><path fill="#000000" d="m228.38728 146.16l29.82811 0l0 6.78125l-22.656235 0l0 35.171875l18.90625 0l0 6.78125l-18.90625 0l0 20.484375l22.656235 0l0 6.78125l-29.82811 0l0 -76.0zm71.09584 28.796875l7.21875 0l-24.375 51.09375l-24.484375 -51.09375l7.78125 0l16.984375 35.296875l16.875 -35.296875zm57.312347 0l0 47.203125l-7.0625 0l0.578125 -6.65625q0.265625 0.796875 -5.609375 4.265625q-5.859375 3.453125 -12.5625 3.453125q-10.234375 0 -17.546875 -7.25q-7.296875 -7.265625 -7.296875 -17.40625q0 -10.140625 7.296875 -17.390625q7.3125 -7.265625 17.546875 -7.265625q6.6875 0 12.828125 3.5625q6.140625 3.5625 5.609375 4.515625l-0.84375 -7.03125l7.0625 0zm-42.421875 23.703125q0 7.234375 5.3125 12.5625q5.3125 5.3125 12.59375 5.3125q7.28125 0 12.453125 -5.3125q5.1875 -5.3125 5.1875 -12.609375q0 -7.296875 -5.234375 -12.65625q-5.21875 -5.359375 -12.453125 -5.359375q-7.21875 0 -12.546875 5.40625q-5.3125 5.40625 -5.3125 12.65625zm70.35837 17.671875l0 6.6875q-9.609375 0 -15.015625 -5.125q-5.390625 -5.125 -5.390625 -13.09375l0 -58.640625l7.0625 0l0 58.640625q0 5.015625 3.296875 8.28125q3.296875 3.25 10.046875 3.25zm38.439728 -41.375l7.0625 0l0 47.203125l-7.0625 0l0 -2.28125q-1.671875 3.34375 -14.703125 3.34375q-8.90625 0 -14.96875 -6.15625q-6.046875 -6.171875 -6.046875 -14.953125l0 -27.15625l7.078125 0l0 27.15625q0 5.828125 4.078125 10.125q4.09375 4.296875 9.875 4.296875q5.796875 0 10.234375 -4.3125q4.453125 -4.328125 4.453125 -10.109375l0 -27.15625zm60.727722 0l0 47.203125l-7.0625 0l0.578125 -6.65625q0.265625 0.796875 -5.609375 4.265625q-5.859375 3.453125 -12.5625 3.453125q-10.234375 0 -17.546875 -7.25q-7.296875 -7.265625 -7.296875 -17.40625q0 -10.140625 7.296875 -17.390625q7.3125 -7.265625 17.546875 -7.265625q6.6875 0 12.828125 3.5625q6.140625 3.5625 5.609375 4.515625l-0.84375 -7.03125l7.0625 0zm-42.421875 23.703125q0 7.234375 5.3125 12.5625q5.3125 5.3125 12.59375 5.3125q7.28125 0 12.453125 -5.3125q5.1875 -5.3125 5.1875 -12.609375q0 -7.296875 -5.234375 -12.65625q-5.21875 -5.359375 -12.453125 -5.359375q-7.21875 0 -12.546875 5.40625q-5.3125 5.40625 -5.3125 12.65625zm69.40521 17.390625l0 6.6875q-9.609375 0 -15.015625 -5.125q-5.40625 -5.140625 -5.40625 -13.09375l0 -46.9375l7.078125 0l0 17.46875l13.25 0l0 6.6875l-13.25 0l0 22.78125q0 5.015625 3.296875 8.28125q3.296875 3.25 10.046875 3.25zm11.995361 -41.0l0 47.109375l-7.0625 0l0 -47.109375l7.0625 0zm-3.53125 -6.546875q-4.78125 0 -4.78125 -4.59375q0 -4.59375 4.78125 -4.59375q4.78125 0 4.78125 4.59375q0 4.59375 -4.78125 4.59375zm34.369263 54.71875q-10.0625 0 -17.265625 -7.453125q-7.203125 -7.46875 -7.203125 -17.40625q0 -9.9375 7.296875 -17.1875q7.3125 -7.265625 17.59375 -7.265625q10.296875 0 17.546875 7.265625q7.265625 7.25 7.265625 17.234375q0 9.96875 -7.109375 17.390625q-7.09375 7.421875 -17.265625 7.421875l-0.859375 0zm18.15625 -24.609375q0 -7.296875 -5.234375 -12.65625q-5.21875 -5.359375 -12.453125 -5.359375q-7.21875 0 -12.546875 5.40625q-5.3125 5.40625 -5.3125 12.65625q0 7.234375 5.3125 12.5625q5.3125 5.3125 12.59375 5.3125q7.28125 0 12.453125 -5.3125q5.1875 -5.3125 5.1875 -12.609375zm19.259766 23.546875l-7.0625 0l0 -47.203125l7.0625 0l0 2.28125q1.671875 -3.328125 14.703125 -3.328125q8.90625 0 14.953125 6.15625q6.0625 6.15625 6.0625 14.9375l0 27.15625l-7.078125 0l0 -27.15625q0 -5.828125 -4.09375 -10.109375q-4.078125 -4.296875 -9.875 -4.296875q-5.78125 0 -10.234375 4.3125q-4.4375 4.3125 -4.4375 10.09375l0 27.15625zm98.90393 1.0625q-10.0625 0 -17.265625 -7.453125q-7.203125 -7.46875 -7.203125 -17.40625q0 -9.9375 7.296875 -17.1875q7.3125 -7.265625 17.59375 -7.265625q10.296875 0 17.546875 7.265625q7.265625 7.25 7.265625 17.234375q0 9.96875 -7.109375 17.390625q-7.09375 7.421875 -17.265625 7.421875l-0.859375 0zm18.15625 -24.609375q0 -7.296875 -5.234375 -12.65625q-5.21875 -5.359375 -12.453125 -5.359375q-7.21875 0 -12.546875 5.40625q-5.3125 5.40625 -5.3125 12.65625q0 7.234375 5.3125 12.5625q5.3125 5.3125 12.59375 5.3125q7.28125 0 12.453125 -5.3125q5.1875 -5.3125 5.1875 -12.609375zm32.603394 -41.125l0 6.6875q-6.734375 0 -10.046875 3.265625q-3.296875 3.25 -3.296875 8.265625l0 23.25l13.4375 0l0 6.6875l-13.4375 0l0 16.515625l-7.0625 0l0 -46.453125q0 -7.953125 5.390625 -13.078125q5.40625 -5.140625 15.015625 -5.140625z" fill-rule="nonzero"></path><path fill="#000000" d="m286.56323 261.16l29.625 0l0 6.78125l-22.453125 0l0 34.984375l18.71875 0l0 6.78125l-18.71875 0l0 27.453125l-7.171875 0l0 -76.0zm68.544464 28.796875l7.0625 0l0 47.203125l-7.0625 0l0 -2.28125q-1.671875 3.34375 -14.703125 3.34375q-8.90625 0 -14.96875 -6.15625q-6.046875 -6.171875 -6.046875 -14.953125l0 -27.15625l7.078125 0l0 27.15625q0 5.828125 4.078125 10.125q4.09375 4.296875 9.875 4.296875q5.796875 0 10.234375 -4.3125q4.453125 -4.328125 4.453125 -10.109375l0 -27.15625zm20.696472 47.203125l-7.0625 0l0 -47.203125l7.0625 0l0 2.28125q1.671875 -3.328125 14.703125 -3.328125q8.90625 0 14.953125 6.15625q6.0625 6.15625 6.0625 14.9375l0 27.15625l-7.078125 0l0 -27.15625q0 -5.828125 -4.09375 -10.109375q-4.078125 -4.296875 -9.875 -4.296875q-5.78125 0 -10.234375 4.3125q-4.4375 4.3125 -4.4375 10.09375l0 27.15625zm66.16336 1.25l-0.859375 0q-10.0625 0 -17.265625 -7.40625q-7.203125 -7.421875 -7.203125 -17.40625q0 -9.984375 7.296875 -17.234375q7.3125 -7.265625 17.953125 -7.265625q10.65625 0 18.6875 8.609375l0 12.1875q-6.375 -9.421875 -10.5 -11.765625q-4.125 -2.34375 -8.59375 -2.34375q-7.140625 0 -12.453125 5.328125q-5.3125 5.3125 -5.3125 12.640625q0 7.328125 5.3125 12.65625q5.3125 5.3125 12.453125 5.3125q4.46875 0 8.578125 -2.34375q4.125 -2.34375 10.515625 -12.015625l0 12.421875q-7.828125 8.625 -18.609375 8.625zm42.227234 -7.359375l0 6.6875q-9.609375 0 -15.015625 -5.125q-5.40625 -5.140625 -5.40625 -13.09375l0 -46.9375l7.078125 0l0 17.46875l13.25 0l0 6.6875l-13.25 0l0 22.78125q0 5.015625 3.296875 8.28125q3.296875 3.25 10.046875 3.25zm11.995361 -41.0l0 47.109375l-7.0625 0l0 -47.109375l7.0625 0zm-3.53125 -6.546875q-4.78125 0 -4.78125 -4.59375q0 -4.59375 4.78125 -4.59375q4.78125 0 4.78125 4.59375q0 4.59375 -4.78125 4.59375zm34.369263 54.71875q-10.0625 0 -17.265656 -7.453125q-7.203125 -7.46875 -7.203125 -17.40625q0 -9.9375 7.296875 -17.1875q7.3125305 -7.265625 17.59378 -7.265625q10.296875 0 17.546875 7.265625q7.265625 7.25 7.265625 17.234375q0 9.96875 -7.109375 17.390625q-7.09375 7.421875 -17.265625 7.421875l-0.859375 0zm18.15625 -24.609375q0 -7.296875 -5.234375 -12.65625q-5.21875 -5.359375 -12.453125 -5.359375q-7.21875 0 -12.546875 5.40625q-5.3125305 5.40625 -5.3125305 12.65625q0 7.234375 5.3125305 12.5625q5.3125 5.3125 12.59375 5.3125q7.28125 0 12.453125 -5.3125q5.1875 -5.3125 5.1875 -12.609375zm19.259766 23.546875l-7.0625 0l0 -47.203125l7.0625 0l0 2.28125q1.671875 -3.328125 14.703125 -3.328125q8.90625 0 14.953125 6.15625q6.0625 6.15625 6.0625 14.9375l0 27.15625l-7.078125 0l0 -27.15625q0 -5.828125 -4.09375 -10.109375q-4.078125 -4.296875 -9.875 -4.296875q-5.78125 0 -10.234375 4.3125q-4.4375 4.3125 -4.4375 10.09375l0 27.15625zm90.335205 -47.203125l0 47.203125l-7.0625 0l0.578125 -6.65625q0.265625 0.796875 -5.609375 4.265625q-5.859375 3.453125 -12.5625 3.453125q-10.234375 0 -17.546875 -7.25q-7.296875 -7.265625 -7.296875 -17.40625q0 -10.140625 7.296875 -17.390625q7.3125 -7.265625 17.546875 -7.265625q6.6875 0 12.828125 3.5625q6.140625 3.5625 5.609375 4.515625l-0.84375 -7.03125l7.0625 0zm-42.421875 23.703125q0 7.234375 5.3125 12.5625q5.3125 5.3125 12.59375 5.3125q7.28125 0 12.453125 -5.3125q5.1875 -5.3125 5.1875 -12.609375q0 -7.296875 -5.234375 -12.65625q-5.21875 -5.359375 -12.453125 -5.359375q-7.21875 0 -12.546875 5.40625q-5.3125 5.40625 -5.3125 12.65625zm70.35828 17.671875l0 6.6875q-9.609375 0 -15.015625 -5.125q-5.390625 -5.125 -5.390625 -13.09375l0 -58.640625l7.0625 0l0 58.640625q0 5.015625 3.296875 8.28125q3.296875 3.25 10.046875 3.25z" fill-rule="nonzero"></path><path fill="#000000" d="m174.9717 396.16q-5.703125 -10.421875 -9.03125 -12.4375q-3.3125 -2.03125 -7.359375 -2.03125q-4.046875 0 -6.734375 2.390625q-2.6875 2.375 -2.6875 6.5625l0 0.46875q0 5.0625 5.90625 9.4375q2.78125 2.046875 6.359375 4.09375q3.578125 2.046875 7.265625 4.453125q3.6875 2.40625 6.8125 5.234375q3.125 2.828125 5.1875 7.046875q2.0625 4.21875 2.0625 9.296875l0 0.953125q0 10.03125 -6.828125 15.953125q-6.8125 5.921875 -16.671875 5.921875q-13.0625 0 -20.625 -11.28125l0 -15.0q6.09375 13.359375 10.453125 16.4375q4.375 3.0625 10.875 3.0625q6.515625 0 11.15625 -4.0625q4.65625 -4.0625 4.65625 -10.84375l0 -0.5625q0 -4.234375 -2.234375 -7.796875q-2.21875 -3.5625 -5.78125 -5.96875q-3.546875 -2.421875 -7.953125 -5.203125q-4.40625 -2.78125 -8.328125 -5.28125q-3.921875 -2.515625 -6.703125 -6.578125q-2.78125 -4.078125 -2.78125 -9.015625l0 -0.671875q0 -7.65625 4.953125 -11.734375q4.96875 -4.09375 12.015625 -4.09375q9.8125 0 16.015625 7.828125l0 13.421875zm13.386108 75.203125l0 -66.40625l7.0625 0l-0.625 6.671875q-0.3125 -0.828125 5.703125 -4.265625q6.03125 -3.453125 12.515625 -3.453125q10.328125 0 17.578125 7.265625q7.265625 7.25 7.265625 17.390625q0 10.140625 -7.265625 17.40625q-7.25 7.25 -17.578125 7.25q-6.296875 0 -12.25 -3.390625q-5.9375 -3.40625 -5.8125 -4.125l0.46875 25.65625l-7.0625 0zm6.875 -42.703125q0 7.234375 5.3125 12.5625q5.328125 5.3125 12.59375 5.3125q7.28125 0 12.453125 -5.3125q5.1875 -5.3125 5.1875 -12.609375q0 -7.296875 -5.234375 -12.65625q-5.21875 -5.359375 -12.4375 -5.359375q-7.21875 0 -12.546875 5.40625q-5.328125 5.40625 -5.328125 12.65625zm71.34273 24.65625l-0.859375 0q-9.96875 0 -17.3125 -7.453125q-7.34375 -7.46875 -7.34375 -17.40625q0 -9.9375 7.296875 -17.1875q7.3125 -7.265625 18.0625 -7.265625q10.75 0 19.71875 9.953125l-29.90625 29.515625q3.9375 3.15625 9.078125 3.15625q5.15625 0 9.265625 -2.390625q4.125 -2.390625 10.515625 -11.84375l0 12.1875q-7.921875 8.734375 -18.515625 8.734375zm-0.96875 -42.625q-6.84375 0 -12.171875 5.328125q-5.3125 5.3125 -5.3125 12.203125q0 6.875 3.1875 10.484375l24.90625 -24.734375q-3.765625 -3.28125 -10.609375 -3.28125zm47.816833 42.71875l-0.859375 0q-10.0625 0 -17.265625 -7.40625q-7.203125 -7.421875 -7.203125 -17.40625q0 -9.984375 7.296875 -17.234375q7.3125 -7.265625 17.953125 -7.265625q10.65625 0 18.6875 8.609375l0 12.1875q-6.375 -9.421875 -10.5 -11.765625q-4.125 -2.34375 -8.59375 -2.34375q-7.140625 0 -12.453125 5.328125q-5.3125 5.3125 -5.3125 12.640625q0 7.328125 5.3125 12.65625q5.3125 5.3125 12.453125 5.3125q4.46875 0 8.578125 -2.34375q4.125 -2.34375 10.515625 -12.015625l0 12.421875q-7.828125 8.625 -18.609375 8.625zm31.086609 -48.359375l0 47.109375l-7.0625 0l0 -47.109375l7.0625 0zm-3.53125 -6.546875q-4.78125 0 -4.78125 -4.59375q0 -4.59375 4.78125 -4.59375q4.78125 0 4.78125 4.59375q0 4.59375 -4.78125 4.59375zm32.713013 -11.015625l0 6.6875q-6.734375 0 -10.046875 3.265625q-3.296875 3.25 -3.296875 8.265625l0 23.25l13.4375 0l0 6.6875l-13.4375 0l0 16.515625l-7.0625 0l0 -46.453125q0 -7.953125 5.390625 -13.078125q5.40625 -5.140625 15.015625 -5.140625zm12.098206 17.5625l0 47.109375l-7.0625 0l0 -47.109375l7.0625 0zm-3.53125 -6.546875q-4.78125 0 -4.78125 -4.59375q0 -4.59375 4.78125 -4.59375q4.78125 0 4.78125 4.59375q0 4.59375 -4.78125 4.59375zm35.228638 54.90625l-0.859375 0q-10.0625 0 -17.265625 -7.40625q-7.203125 -7.421875 -7.203125 -17.40625q0 -9.984375 7.296875 -17.234375q7.3125 -7.265625 17.953125 -7.265625q10.65625 0 18.6875 8.609375l0 12.1875q-6.375 -9.421875 -10.5 -11.765625q-4.125 -2.34375 -8.59375 -2.34375q-7.140625 0 -12.453125 5.328125q-5.3125 5.3125 -5.3125 12.640625q0 7.328125 5.3125 12.65625q5.3125 5.3125 12.453125 5.3125q4.46875 0 8.578125 -2.34375q4.125 -2.34375 10.515625 -12.015625l0 12.421875q-7.828125 8.625 -18.609375 8.625zm69.86786 -48.453125l0 47.203125l-7.0625 0l0.578125 -6.65625q0.265625 0.796875 -5.609375 4.265625q-5.859375 3.453125 -12.5625 3.453125q-10.234375 0 -17.546875 -7.25q-7.296875 -7.265625 -7.296875 -17.40625q0 -10.140625 7.296875 -17.390625q7.3125 -7.265625 17.546875 -7.265625q6.6875 0 12.828125 3.5625q6.140625 3.5625 5.609375 4.515625l-0.84375 -7.03125l7.0625 0zm-42.421875 23.703125q0 7.234375 5.3125 12.5625q5.3125 5.3125 12.59375 5.3125q7.28125 0 12.453125 -5.3125q5.1875 -5.3125 5.1875 -12.609375q0 -7.296875 -5.234375 -12.65625q-5.21875 -5.359375 -12.453125 -5.359375q-7.21875 0 -12.546875 5.40625q-5.3125 5.40625 -5.3125 12.65625zm69.40524 17.390625l0 6.6875q-9.609375 0 -15.015625 -5.125q-5.40625 -5.140625 -5.40625 -13.09375l0 -46.9375l7.078125 0l0 17.46875l13.25 0l0 6.6875l-13.25 0l0 22.78125q0 5.015625 3.296875 8.28125q3.296875 3.25 10.046875 3.25zm11.995361 -41.0l0 47.109375l-7.0625 0l0 -47.109375l7.0625 0zm-3.53125 -6.546875q-4.78125 0 -4.78125 -4.59375q0 -4.59375 4.78125 -4.59375q4.78125 0 4.78125 4.59375q0 4.59375 -4.78125 4.59375zm34.369263 54.71875q-10.0625 0 -17.265625 -7.453125q-7.203125 -7.46875 -7.203125 -17.40625q0 -9.9375 7.296875 -17.1875q7.3125 -7.265625 17.59375 -7.265625q10.296875 0 17.546875 7.265625q7.265625 7.25 7.265625 17.234375q0 9.96875 -7.109375 17.390625q-7.09375 7.421875 -17.265625 7.421875l-0.859375 0zm18.15625 -24.609375q0 -7.296875 -5.234375 -12.65625q-5.21875 -5.359375 -12.453125 -5.359375q-7.21875 0 -12.546875 5.40625q-5.3125 5.40625 -5.3125 12.65625q0 7.234375 5.3125 12.5625q5.3125 5.3125 12.59375 5.3125q7.28125 0 12.453125 -5.3125q5.1875 -5.3125 5.1875 -12.609375zm19.259766 23.546875l-7.0625 0l0 -47.203125l7.0625 0l0 2.28125q1.671875 -3.328125 14.703125 -3.328125q8.90625 0 14.953125 6.15625q6.0625 6.15625 6.0625 14.9375l0 27.15625l-7.078125 0l0 -27.15625q0 -5.828125 -4.09375 -10.109375q-4.078125 -4.296875 -9.875 -4.296875q-5.78125 0 -10.234375 4.3125q-4.4375 4.3125 -4.4375 10.09375l0 27.15625zm123.93518 -47.203125l0 47.203125l-7.0625 0l0.578125 -6.65625q0.265625 0.796875 -5.609375 4.265625q-5.859375 3.453125 -12.5625 3.453125q-10.234375 0 -17.546875 -7.25q-7.296875 -7.265625 -7.296875 -17.40625q0 -10.140625 7.296875 -17.390625q7.3125 -7.265625 17.546875 -7.265625q6.6875 0 12.828125 3.5625q6.140625 3.5625 5.609375 4.515625l-0.84375 -7.03125l7.0625 0zm-42.421875 23.703125q0 7.234375 5.3125 12.5625q5.3125 5.3125 12.59375 5.3125q7.28125 0 12.453125 -5.3125q5.1875 -5.3125 5.1875 -12.609375q0 -7.296875 -5.234375 -12.65625q-5.21875 -5.359375 -12.453125 -5.359375q-7.21875 0 -12.546875 5.40625q-5.3125 5.40625 -5.3125 12.65625zm57.014526 23.5l-7.0625 0l0 -47.203125l7.0625 0l0 2.28125q1.671875 -3.328125 14.703125 -3.328125q8.90625 0 14.953125 6.15625q6.0625 6.15625 6.0625 14.9375l0 27.15625l-7.078125 0l0 -27.15625q0 -5.828125 -4.09375 -10.109375q-4.078125 -4.296875 -9.875 -4.296875q-5.78125 0 -10.234375 4.3125q-4.4375 4.3125 -4.4375 10.09375l0 27.15625zm90.335205 -76.0l0 76.0l-7.0625 0l0.46875 -6.453125q0.125 0.71875 -5.828125 4.125q-5.9375 3.390625 -12.234375 3.390625q-10.328125 0 -17.59375 -7.25q-7.25 -7.265625 -7.25 -17.40625q0 -10.140625 7.25 -17.390625q7.265625 -7.265625 17.59375 -7.265625q6.484375 0 12.5 3.453125q6.03125 3.4375 5.71875 4.265625l-0.625 -35.46875l7.0625 0zm-42.421875 52.453125q0 7.296875 5.171875 12.609375q5.1875 5.3125 12.453125 5.3125q7.28125 0 12.59375 -5.3125q5.328125 -5.328125 5.328125 -12.5625q0 -7.25 -5.328125 -12.65625q-5.328125 -5.40625 -12.546875 -5.40625q-7.21875 0 -12.453125 5.359375q-5.21875 5.359375 -5.21875 12.65625z" fill-rule="nonzero"></path><path fill="#000000" d="m193.70348 491.16l0 76.00003l-7.171875 0l0 -61.59378l-31.984375 65.50003l-31.796875 -65.453156l0 61.546906l-6.875 0l0 -76.00003l7.859375 0l31.09375 63.87503l31.203125 -63.87503l7.671875 0zm56.05208 28.796906l0 47.203125l-7.0625 0l0.578125 -6.65625q0.265625 0.796875 -5.609375 4.265625q-5.859375 3.453125 -12.5625 3.453125q-10.234375 0 -17.546875 -7.25q-7.296875 -7.265625 -7.296875 -17.40625q0 -10.140625 7.296875 -17.390625q7.3125 -7.265625 17.546875 -7.265625q6.6875 0 12.828125 3.5625q6.140625 3.5625 5.609375 4.515625l-0.84375 -7.03125l7.0625 0zm-42.421875 23.703125q0 7.234375 5.3125 12.5625q5.3125 5.3125 12.59375 5.3125q7.28125 0 12.453125 -5.3125q5.1875 -5.3125 5.1875 -12.609375q0 -7.296875 -5.234375 -12.65625q-5.21875 -5.359375 -12.453125 -5.359375q-7.21875 0 -12.546875 5.40625q-5.3125 5.40625 -5.3125 12.65625zm57.014587 23.5l-7.0625 0l0 -47.203125l7.0625 0l0 2.28125q1.671875 -3.328125 14.703125 -3.328125q8.90625 0 14.953125 6.15625q6.0625 6.15625 6.0625 14.9375l0 27.15625l-7.078125 0l0 -27.15625q0 -5.828125 -4.09375 -10.109375q-4.078125 -4.296875 -9.875 -4.296875q-5.78125 0 -10.234375 4.3125q-4.4375 4.3125 -4.4375 10.09375l0 27.15625zm90.335236 -47.203125l0 47.203125l-7.0625 0l0.578125 -6.65625q0.265625 0.796875 -5.609375 4.265625q-5.859375 3.453125 -12.5625 3.453125q-10.234375 0 -17.546875 -7.25q-7.296875 -7.265625 -7.296875 -17.40625q0 -10.140625 7.296875 -17.390625q7.3125 -7.265625 17.546875 -7.265625q6.6875 0 12.828125 3.5625q6.140625 3.5625 5.609375 4.515625l-0.84375 -7.03125l7.0625 0zm-42.421875 23.703125q0 7.234375 5.3125 12.5625q5.3125 5.3125 12.59375 5.3125q7.28125 0 12.453125 -5.3125q5.1875 -5.3125 5.1875 -12.609375q0 -7.296875 -5.234375 -12.65625q-5.21875 -5.359375 -12.453125 -5.359375q-7.21875 0 -12.546875 5.40625q-5.3125 5.40625 -5.3125 12.65625zm90.07709 -23.703125l7.0625 0l0 41.171875q0 11.9375 -6.71875 18.96875q-6.703125 7.03125 -17.546875 7.03125q-5.921875 0 -11.546875 -2.71875q-5.625 -2.703125 -9.171875 -7.671875l0 -12.921875q5.984375 11.03125 10.828125 13.828125q4.859375 2.796875 9.890625 2.796875q7.59375 0 12.390625 -5.109375q4.8125 -5.109375 4.8125 -14.203125l0.625 -0.546875q0.3125 0.828125 -5.765625 4.28125q-6.0625 3.453125 -12.546875 3.453125q-10.234375 0 -17.546875 -7.25q-7.296875 -7.265625 -7.296875 -17.40625q0 -10.140625 7.296875 -17.390625q7.3125 -7.265625 17.546875 -7.265625q6.78125 0 12.703125 3.40625q5.921875 3.40625 5.625 4.25l-0.640625 -6.703125zm-35.453125 23.703125q0 7.328125 5.3125 12.65625q5.3125 5.3125 12.59375 5.3125q7.28125 0 12.453125 -5.3125q5.1875 -5.3125 5.1875 -12.65625q0 -7.34375 -5.1875 -12.65625q-5.171875 -5.3125 -12.453125 -5.3125q-7.28125 0 -12.59375 5.328125q-5.3125 5.3125 -5.3125 12.640625zm73.641846 24.65625l-0.859375 0q-9.96875 0 -17.3125 -7.453125q-7.34375 -7.46875 -7.34375 -17.40625q0 -9.9375 7.296875 -17.1875q7.3125 -7.265625 18.0625 -7.265625q10.75 0 19.71875 9.953125l-29.90625 29.515625q3.9375 3.15625 9.078125 3.15625q5.15625 0 9.265625 -2.390625q4.125 -2.390625 10.515625 -11.84375l0 12.1875q-7.921875 8.734375 -18.515625 8.734375zm-0.96875 -42.625q-6.84375 0 -12.171875 5.328125q-5.3125 5.3125 -5.3125 12.203125q0 6.875 3.1875 10.484375l24.90625 -24.734375q-3.765625 -3.28125 -10.609375 -3.28125zm56.67621 0.28125q-0.09375 -0.765625 4.53125 -3.90625q4.625 -3.15625 11.1875 -3.15625q6.5625305 0 11.5781555 4.796875q5.015625 4.78125 5.015625 12.84375l0 30.609375l-7.078125 0l0 -30.609375q0 -4.734375 -3.0625 -7.84375q-3.0625 -3.109375 -7.3750305 -3.109375q-4.3125 0 -7.703125 3.265625q-3.390625 3.25 -3.390625 7.5l0 30.796875l-7.078125 0l0 -30.796875q0 -4.375 -3.078125 -7.5625q-3.0625 -3.203125 -7.40625 -3.203125q-4.34375 0 -7.609375 3.25q-3.25 3.25 -3.25 7.515625l0 30.796875l-7.0625 0l0 -47.203125l7.0625 0l-0.953125 4.59375q-0.515625 -0.9375 3.71875 -3.28125q4.234375 -2.359375 8.90625 -2.359375q4.671875 0 8.90625 3.203125q4.234375 3.203125 4.140625 3.859375zm63.428497 42.34375l-0.859375 0q-9.96875 0 -17.3125 -7.453125q-7.34375 -7.46875 -7.34375 -17.40625q0 -9.9375 7.296875 -17.1875q7.3125 -7.265625 18.0625 -7.265625q10.75 0 19.71875 9.953125l-29.90625 29.515625q3.9375 3.15625 9.078125 3.15625q5.15625 0 9.265625 -2.390625q4.125 -2.390625 10.515625 -11.84375l0 12.1875q-7.921875 8.734375 -18.515625 8.734375zm-0.96875 -42.625q-6.84375 0 -12.171875 5.328125q-5.3125 5.3125 -5.3125 12.203125q0 6.875 3.1875 10.484375l24.90625 -24.734375q-3.765625 -3.28125 -10.609375 -3.28125zm31.957458 41.46875l-7.0625 0l0 -47.203125l7.0625 0l0 2.28125q1.671875 -3.328125 14.703125 -3.328125q8.90625 0 14.953125 6.15625q6.0625 6.15625 6.0625 14.9375l0 27.15625l-7.078125 0l0 -27.15625q0 -5.828125 -4.09375 -10.109375q-4.078125 -4.296875 -9.875 -4.296875q-5.78125 0 -10.234375 4.3125q-4.4375 4.3125 -4.4375 10.09375l0 27.15625zm62.69458 -6.109375l0 6.6875q-9.609375 0 -15.015625 -5.125q-5.40625 -5.140625 -5.40625 -13.09375l0 -46.93753l7.078125 0l0 17.46878l13.25 0l0 6.6875l-13.25 0l0 22.78125q0 5.015625 3.296875 8.28125q3.296875 3.25 10.046875 3.25zm38.626587 -69.890656l5.15625 0q10.796875 0 18.390625 7.453125q7.609375 7.4375 7.609375 17.609406q0 10.171875 -7.859375 17.453125q-7.84375 7.28125 -17.359375 7.28125l0 -1.21875l1.21875 27.421875l-7.15625 0l0 -76.00003zm5.9375 44.328156l0 -1.21875q7.234375 0 12.640625 -5.359375q5.421875 -5.375 5.421875 -12.703125q0 -7.3437805 -5.515625 -12.7969055q-5.515625 -5.46875 -12.546875 -5.46875l0 -1.21875l0 38.765656zm50.565002 25.84375l0 6.6875q-9.609375 0 -15.015625 -5.125q-5.390625 -5.125 -5.390625 -13.09375l0 -58.640656l7.0625 0l0 58.640656q0 5.015625 3.296875 8.28125q3.296875 3.25 10.046875 3.25zm50.78351 -41.375l0 47.203125l-7.0625 0l0.578125 -6.65625q0.265625 0.796875 -5.609375 4.265625q-5.859375 3.453125 -12.5625 3.453125q-10.234375 0 -17.546875 -7.25q-7.296875 -7.265625 -7.296875 -17.40625q0 -10.140625 7.296875 -17.390625q7.3125 -7.265625 17.546875 -7.265625q6.6875 0 12.828125 3.5625q6.140625 3.5625 5.609375 4.515625l-0.84375 -7.03125l7.0625 0zm-42.421875 23.703125q0 7.234375 5.3125 12.5625q5.3125 5.3125 12.59375 5.3125q7.28125 0 12.453125 -5.3125q5.1875 -5.3125 5.1875 -12.609375q0 -7.296875 -5.234375 -12.65625q-5.21875 -5.359375 -12.453125 -5.359375q-7.21875 0 -12.546875 5.40625q-5.3125 5.40625 -5.3125 12.65625zm57.014587 23.5l-7.0625 0l0 -47.203125l7.0625 0l0 2.28125q1.671875 -3.328125 14.703125 -3.328125q8.90625 0 14.953125 6.15625q6.0625 6.15625 6.0625 14.9375l0 27.15625l-7.078125 0l0 -27.15625q0 -5.828125 -4.09375 -10.109375q-4.078125 -4.296875 -9.875 -4.296875q-5.78125 0 -10.234375 4.3125q-4.4375 4.3125 -4.4375 10.09375l0 27.15625z" fill-rule="nonzero"></path></g></svg>

