<?xml version="1.0" standalone="yes"?>

<svg version="1.1" viewBox="0.0 0.0 960.0 720.0" fill="none" stroke="none" stroke-linecap="square" stroke-miterlimit="10" xmlns="http://www.w3.org/2000/svg" xmlns:xlink="http://www.w3.org/1999/xlink"><clipPath id="p.0"><path d="m0 0l960.0 0l0 720.0l-960.0 0l0 -720.0z" clip-rule="nonzero"></path></clipPath><g clip-path="url(#p.0)"><path fill="#000000" fill-opacity="0.0" d="m0 0l960.0 0l0 720.0l-960.0 0z" fill-rule="nonzero"></path><path fill="#b7b7b7" d="m0 120.0024l0 0c0 -66.2755 53.726906 -120.0024 120.0024 -120.0024l719.99524 0c31.8266 0 62.34973 12.643074 84.85449 35.14789c22.504822 22.504818 35.14795 53.0279 35.14795 84.854515l0 479.9952c0 66.27545 -53.72693 120.00238 -120.00244 120.00238l-719.99524 0l0 0c-66.2755 0 -120.0024 -53.72693 -120.0024 -120.00238z" fill-rule="nonzero"></path><path stroke="#000000" stroke-width="1.0" stroke-linejoin="round" stroke-linecap="butt" d="m0 120.0024l0 0c0 -66.2755 53.726906 -120.0024 120.0024 -120.0024l719.99524 0c31.8266 0 62.34973 12.643074 84.85449 35.14789c22.504822 22.504818 35.14795 53.0279 35.14795 84.854515l0 479.9952c0 66.27545 -53.72693 120.00238 -120.00244 120.00238l-719.99524 0l0 0c-66.2755 0 -120.0024 -53.72693 -120.0024 -120.00238z" fill-rule="nonzero"></path><path fill="#000000" d="m228.38728 146.16l29.82811 0l0 6.78125l-22.656235 0l0 35.171875l18.90625 0l0 6.78125l-18.90625 0l0 20.484375l22.656235 0l0 6.78125l-29.82811 0l0 -76.0zm71.09584 28.796875l7.21875 0l-24.375 51.09375l-24.484375 -51.09375l7.78125 0l16.984375 35.296875l16.875 -35.296875zm57.312347 0l0 47.203125l-7.0625 0l2.0 -12.75q-1.15625 6.890625 -7.03125 10.359375q-5.859375 3.453125 -12.5625 3.453125q-10.234375 0 -17.546875 -7.25q-7.296875 -7.265625 -7.296875 -17.40625q0 -10.140625 7.296875 -17.390625q7.3125 -7.265625 17.546875 -7.265625q6.703125 0 12.828125 3.5625q6.140625 3.5625 6.765625 10.328125l-2.0 -12.84375l7.0625 0zm-42.421875 23.703125q0 7.234375 5.3125 12.5625q5.3125 5.3125 12.59375 5.3125q7.28125 0 12.453125 -5.3125q5.1875 -5.3125 5.1875 -12.609375q0 -7.296875 -5.234375 -12.65625q-5.21875 -5.359375 -12.453125 -5.359375q-7.21875 0 -12.546875 5.40625q-5.3125 5.40625 -5.3125 12.65625zm70.35837 17.671875l0 6.6875q-9.609375 0 -15.015625 -5.125q-5.390625 -5.125 -5.390625 -13.09375l0 -58.640625l7.0625 0l0 58.640625q0 5.015625 3.296875 8.28125q3.296875 3.25 10.046875 3.25zm38.439728 -41.375l7.0625 0l0 47.203125l-7.0625 0l2.0 -10.734375q-3.671875 11.796875 -16.703125 11.796875q-8.90625 0 -14.96875 -6.15625q-6.046875 -6.171875 -6.046875 -14.953125l0 -27.15625l7.078125 0l0 27.15625q0 5.828125 4.078125 10.125q4.09375 4.296875 9.875 4.296875q5.796875 0 10.234375 -4.3125q4.453125 -4.328125 4.453125 -10.109375l0 -27.15625zm60.727722 0l0 47.203125l-7.0625 0l2.0 -12.75q-1.15625 6.890625 -7.03125 10.359375q-5.859375 3.453125 -12.5625 3.453125q-10.234375 0 -17.546875 -7.25q-7.296875 -7.265625 -7.296875 -17.40625q0 -10.140625 7.296875 -17.390625q7.3125 -7.265625 17.546875 -7.265625q6.703125 0 12.828125 3.5625q6.140625 3.5625 6.765625 10.328125l-2.0 -12.84375l7.0625 0zm-42.421875 23.703125q0 7.234375 5.3125 12.5625q5.3125 5.3125 12.59375 5.3125q7.28125 0 12.453125 -5.3125q5.1875 -5.3125 5.1875 -12.609375q0 -7.296875 -5.234375 -12.65625q-5.21875 -5.359375 -12.453125 -5.359375q-7.21875 0 -12.546875 5.40625q-5.3125 5.40625 -5.3125 12.65625zm69.40521 17.390625l0 6.6875q-9.609375 0 -15.015625 -5.125q-5.40625 -5.140625 -5.40625 -13.09375l0 -46.9375l7.078125 0l0 17.46875l13.25 0l0 6.6875l-13.25 0l0 22.78125q0 5.0 3.28125 8.265625q3.296875 3.265625 10.0625 3.265625zm11.995361 -41.0l0 47.109375l-7.0625 0l0 -47.109375l7.0625 0zm-3.53125 -6.546875q-4.78125 0 -4.78125 -4.59375q0 -4.59375 4.78125 -4.59375q4.78125 0 4.78125 4.59375q0 4.59375 -4.78125 4.59375zm34.369263 54.71875q-10.0625 0 -17.265625 -7.453125q-7.203125 -7.46875 -7.203125 -17.40625q0 -9.9375 7.296875 -17.1875q7.3125 -7.265625 17.59375 -7.265625q10.296875 0 17.546875 7.265625q7.265625 7.25 7.265625 17.234375q0 9.96875 -7.109375 17.390625q-7.09375 7.421875 -17.265625 7.421875l-0.859375 0zm18.15625 -24.609375q0 -7.296875 -5.234375 -12.65625q-5.21875 -5.359375 -12.453125 -5.359375q-7.21875 0 -12.546875 5.40625q-5.3125 5.40625 -5.3125 12.65625q0 7.234375 5.3125 12.5625q5.3125 5.3125 12.59375 5.3125q7.28125 0 12.453125 -5.3125q5.1875 -5.3125 5.1875 -12.609375zm19.259766 23.546875l-7.0625 0l0 -47.203125l7.0625 0l-2.0 10.734375q3.671875 -11.78125 16.703125 -11.78125q8.90625 0 14.953125 6.15625q6.0625 6.15625 6.0625 14.9375l0 27.15625l-7.078125 0l0 -27.15625q0 -5.828125 -4.09375 -10.109375q-4.078125 -4.296875 -9.875 -4.296875q-5.78125 0 -10.234375 4.3125q-4.4375 4.3125 -4.4375 10.09375l0 27.15625zm98.90393 1.0625q-10.0625 0 -17.265625 -7.453125q-7.203125 -7.46875 -7.203125 -17.40625q0 -9.9375 7.296875 -17.1875q7.3125 -7.265625 17.59375 -7.265625q10.296875 0 17.546875 7.265625q7.265625 7.25 7.265625 17.234375q0 9.96875 -7.109375 17.390625q-7.09375 7.421875 -17.265625 7.421875l-0.859375 0zm18.15625 -24.609375q0 -7.296875 -5.234375 -12.65625q-5.21875 -5.359375 -12.453125 -5.359375q-7.21875 0 -12.546875 5.40625q-5.3125 5.40625 -5.3125 12.65625q0 7.234375 5.3125 12.5625q5.3125 5.3125 12.59375 5.3125q7.28125 0 12.453125 -5.3125q5.1875 -5.3125 5.1875 -12.609375zm32.603394 -41.125l0 6.6875q-6.75 0 -10.046875 3.265625q-3.296875 3.265625 -3.296875 8.265625l0 23.25l13.4375 0l0 6.6875l-13.4375 0l0 16.515625l-7.0625 0l0 -46.453125q0 -7.953125 5.390625 -13.078125q5.40625 -5.140625 15.015625 -5.140625z" fill-rule="nonzero"></path><path fill="#000000" d="m354.4116 273.33188q-3.703125 -2.59375 -7.03125 -4.609375q-3.3125 -2.03125 -7.359375 -2.03125q-4.046875 0 -6.734375 2.375q-2.6875 2.375 -2.6875 6.578125l0 0.46875q0 5.0625 5.90625 9.4375q2.78125 2.046875 6.359375 4.09375q3.578125 2.046875 7.265625 4.46875q3.6875 2.40625 6.8125 5.234375q3.125 2.8125 5.1875 7.046875q2.0625 4.21875 2.0625 9.28125l0 0.953125q0 10.046875 -6.828125 15.96875q-6.8125 5.90625 -16.671875 5.90625q-13.0625 0 -20.625 -11.28125l2.0 -5.796875q4.09375 4.15625 8.453125 7.234375q4.359375 3.0625 10.875 3.0625q6.515625 0 11.15625 -4.0625q4.65625 -4.0625 4.65625 -10.84375l0 -0.5625q0 -4.234375 -2.234375 -7.796875q-2.21875 -3.5625 -5.78125 -5.96875q-3.546875 -2.421875 -7.953125 -5.203125q-4.40625 -2.78125 -8.328125 -5.28125q-3.921875 -2.515625 -6.703125 -6.578125q-2.78125 -4.078125 -2.78125 -9.015625l0 -0.671875q0 -7.671875 4.953125 -11.75q4.96875 -4.078125 12.015625 -4.078125q9.8125 0 16.015625 7.828125l-2.0 5.59375zm50.13611 16.625l7.0625 0l0 47.203125l-7.0625 0l2.0 -10.734375q-3.671875 11.796875 -16.703125 11.796875q-8.90625 0 -14.96875 -6.15625q-6.046875 -6.171875 -6.046875 -14.953125l0 -27.15625l7.078125 0l0 27.15625q0 5.828125 4.078125 10.125q4.09375 4.296875 9.875 4.296875q5.796875 0 10.234375 -4.3125q4.453125 -4.328125 4.453125 -10.109375l0 -27.15625zm13.633972 66.40625l0 -66.40625l7.0625 0l-2.0 12.5625q1.0625 -6.71875 7.078125 -10.15625q6.03125 -3.453125 12.515625 -3.453125q10.328125 0 17.578125 7.265625q7.265625 7.25 7.265625 17.390625q0 10.140625 -7.265625 17.40625q-7.25 7.25 -17.578125 7.25q-6.296875 0 -12.25 -3.390625q-5.9375 -3.40625 -7.34375 -10.140625l2.0 31.671875l-7.0625 0zm6.875 -42.703125q0 7.234375 5.3125 12.5625q5.328125 5.3125 12.59375 5.3125q7.28125 0 12.453125 -5.3125q5.1875 -5.3125 5.1875 -12.609375q0 -7.296875 -5.234375 -12.65625q-5.21875 -5.359375 -12.4375 -5.359375q-7.21875 0 -12.546875 5.40625q-5.328125 5.40625 -5.328125 12.65625zm47.748962 42.703125l0 -66.40625l7.0625 0l-2.0 12.5625q1.0625 -6.71875 7.078125 -10.15625q6.03125 -3.453125 12.515625 -3.453125q10.328125 0 17.578156 7.265625q7.265625 7.25 7.265625 17.390625q0 10.140625 -7.265625 17.40625q-7.2500305 7.25 -17.578156 7.25q-6.296875 0 -12.25 -3.390625q-5.9375 -3.40625 -7.34375 -10.140625l2.0 31.671875l-7.0625 0zm6.875 -42.703125q0 7.234375 5.3125 12.5625q5.328125 5.3125 12.59375 5.3125q7.28125 0 12.453125 -5.3125q5.1875305 -5.3125 5.1875305 -12.609375q0 -7.296875 -5.2344055 -12.65625q-5.21875 -5.359375 -12.4375 -5.359375q-7.21875 0 -12.546875 5.40625q-5.328125 5.40625 -5.328125 12.65625zm68.15524 17.671875l0 6.6875q-9.609375 0 -15.015625 -5.125q-5.390625 -5.125 -5.390625 -13.09375l0 -58.640625l7.0625 0l0 58.640625q0 5.015625 3.296875 8.28125q3.296875 3.25 10.046875 3.25zm12.002258 -41.28125l0 47.109375l-7.0625 0l0 -47.109375l7.0625 0zm-3.53125 -6.546875q-4.78125 0 -4.78125 -4.59375q0 -4.59375 4.78125 -4.59375q4.78125 0 4.78125 4.59375q0 4.59375 -4.78125 4.59375zm35.900513 54.8125l-0.859375 0q-9.96875 0 -17.3125 -7.453125q-7.34375 -7.46875 -7.34375 -17.40625q0 -9.9375 7.296875 -17.1875q7.3125 -7.265625 18.0625 -7.265625q10.75 0 19.71875 9.953125l-29.890625 29.515625q3.921875 3.15625 9.0625 3.15625q5.140625 0 9.265625 -2.390625q4.140625 -2.390625 10.515625 -11.859375l0 12.203125q-7.921875 8.734375 -18.515625 8.734375zm-0.96875 -42.625q-6.84375 0 -12.171875 5.328125q-5.3125 5.3125 -5.3125 12.203125q0 6.875 3.1875 10.484375l24.90625 -24.734375q-3.765625 -3.28125 -10.609375 -3.28125zm54.14496 6.9375q-7.0625 -7.03125 -11.328125 -7.03125q-4.265625 0 -7.5625 3.265625q-3.296875 3.25 -3.296875 7.5l0 30.796875l-7.0625 0l0 -47.203125l7.0625 0l-2.0 8.4375q0.234375 -4.703125 4.359375 -7.09375q4.140625 -2.390625 9.234375 -2.390625q5.109375 0 10.59375 4.0625l0 9.65625z" fill-rule="nonzero"></path><path fill="#000000" d="m207.45927 376.16l5.0625 0q17.015625 0 27.453125 11.21875q10.453125 11.203125 10.453125 26.828125q0 15.625 -10.40625 26.796875q-10.390625 11.15625 -27.5 11.15625l-5.0625 0l0 -76.0zm5.84375 6.875l1.21875 0l0 62.15625l-1.21875 0q13.140625 0 21.546875 -9.09375q8.421875 -9.09375 8.421875 -21.890625q0 -12.796875 -8.421875 -21.984375q-8.40625 -9.1875 -21.546875 -9.1875zm66.80846 70.28125l-0.859375 0q-9.96875 0 -17.3125 -7.453125q-7.3437347 -7.46875 -7.3437347 -17.40625q0 -9.9375 7.2968597 -17.1875q7.3125 -7.265625 18.0625 -7.265625q10.75 0 19.71875 9.953125l-29.890625 29.515625q3.921875 3.15625 9.0625 3.15625q5.140625 0 9.265625 -2.390625q4.140625 -2.390625 10.515625 -11.859375l0 12.203125q-7.921875 8.734375 -18.515625 8.734375zm-0.96875 -42.625q-6.84375 0 -12.171875 5.328125q-5.3125 5.3125 -5.3125 12.203125q0 6.875 3.1875 10.484375l24.90625 -24.734375q-3.765625 -3.28125 -10.609375 -3.28125zm56.64496 -0.703125q-0.0625 0.21875 4.546875 -2.921875q4.625 -3.15625 11.1875 -3.15625q6.578125 0 11.59375 4.796875q5.015625 4.78125 5.015625 12.84375l0 30.609375l-7.078125 0l0 -30.609375q0 -4.75 -3.078125 -7.84375q-3.0625 -3.109375 -7.375 -3.109375q-4.296875 0 -7.6875 3.265625q-3.390625 3.25 -3.390625 7.5l0 30.796875l-7.078125 0l0 -30.796875q0 -4.375 -3.078125 -7.5625q-3.0625 -3.203125 -7.40625 -3.203125q-4.34375 0 -7.609375 3.25q-3.25 3.25 -3.25 7.515625l0 30.796875l-7.0625 0l0 -47.203125l7.0625 0l0 1.453125q-1.46875 2.203125 2.765625 -0.140625q4.234375 -2.359375 8.90625 -2.359375q4.671875 0 8.90625 3.203125q4.234375 3.203125 4.109375 2.875zm61.928467 43.234375q-10.0625 0 -17.265625 -7.453125q-7.203125 -7.46875 -7.203125 -17.40625q0 -9.9375 7.296875 -17.1875q7.3125 -7.265625 17.59375 -7.265625q10.296875 0 17.546875 7.265625q7.265625 7.25 7.265625 17.234375q0 9.96875 -7.109375 17.390625q-7.09375 7.421875 -17.265625 7.421875l-0.859375 0zm18.15625 -24.609375q0 -7.296875 -5.234375 -12.65625q-5.21875 -5.359375 -12.453125 -5.359375q-7.21875 0 -12.546875 5.40625q-5.3125 5.40625 -5.3125 12.65625q0 7.234375 5.3125 12.5625q5.3125 5.3125 12.59375 5.3125q7.28125 0 12.453125 -5.3125q5.1875 -5.3125 5.1875 -12.609375zm19.259735 23.546875l-7.0625 0l0 -47.203125l7.0625 0l-2.0 10.734375q3.671875 -11.78125 16.703125 -11.78125q8.90625 0 14.953125 6.15625q6.0625 6.15625 6.0625 14.9375l0 27.15625l-7.078125 0l0 -27.15625q0 -5.828125 -4.09375 -10.109375q-4.078125 -4.296875 -9.875 -4.296875q-5.78125 0 -10.234375 4.3125q-4.4375 4.3125 -4.4375 10.09375l0 27.15625zm54.647736 -41.65625q-1.765625 0 -3.0625 1.09375q-1.28125 1.078125 -1.28125 2.59375q0 1.5 1.75 3.140625q1.765625 1.640625 4.703125 3.28125q2.9375 1.625 6.1875 3.65625q3.265625 2.03125 5.71875 5.421875q2.46875 3.390625 2.46875 7.890625q0 6.546875 -4.875 11.09375q-4.859375 4.546875 -11.703125 4.546875q-4.328125 0 -8.125 -1.921875q-3.796875 -1.9375 -5.875 -5.71875l2.0 -5.125q4.921875 6.078125 11.703125 6.078125q4.234375 0 7.015625 -2.515625q2.796875 -2.53125 2.796875 -5.515625q0 -2.984375 -1.828125 -5.15625q-1.8125 -2.1875 -4.734375 -3.921875q-2.921875 -1.734375 -6.09375 -3.59375q-3.171875 -1.875 -5.671875 -4.8125q-2.5 -2.953125 -2.5 -7.1875q0 -4.234375 3.359375 -7.125q3.359375 -2.90625 8.5 -2.90625q5.140625 0 9.3125 4.609375l0 11.296875q-6.125 -9.203125 -9.765625 -9.203125zm41.070892 35.546875l0 6.6875q-9.609375 0 -15.015625 -5.125q-5.4062805 -5.140625 -5.4062805 -13.09375l0 -46.9375l7.0781555 0l0 17.46875l13.25 0l0 6.6875l-13.25 0l0 22.78125q0 5.0 3.28125 8.265625q3.296875 3.265625 10.0625 3.265625zm32.93286 -28.421875q-7.0625 -7.03125 -11.328125 -7.03125q-4.265625 0 -7.5625 3.265625q-3.296875 3.25 -3.296875 7.5l0 30.796875l-7.0625 0l0 -47.203125l7.0625 0l-2.0 8.4375q0.234375 -4.703125 4.359375 -7.09375q4.140625 -2.390625 9.234375 -2.390625q5.109375 0 10.59375 4.0625l0 9.65625zm51.25171 -12.671875l0 47.203125l-7.0625 0l2.0 -12.75q-1.15625 6.890625 -7.03125 10.359375q-5.859375 3.453125 -12.5625 3.453125q-10.234375 0 -17.546875 -7.25q-7.296875 -7.265625 -7.296875 -17.40625q0 -10.140625 7.296875 -17.390625q7.3125 -7.265625 17.546875 -7.265625q6.703125 0 12.828125 3.5625q6.140625 3.5625 6.765625 10.328125l-2.0 -12.84375l7.0625 0zm-42.421875 23.703125q0 7.234375 5.3125 12.5625q5.3125 5.3125 12.59375 5.3125q7.28125 0 12.453125 -5.3125q5.1875 -5.3125 5.1875 -12.609375q0 -7.296875 -5.234375 -12.65625q-5.21875 -5.359375 -12.453125 -5.359375q-7.21875 0 -12.546875 5.40625q-5.3125 5.40625 -5.3125 12.65625zm69.40527 17.390625l0 6.6875q-9.609375 0 -15.015625 -5.125q-5.40625 -5.140625 -5.40625 -13.09375l0 -46.9375l7.078125 0l0 17.46875l13.25 0l0 6.6875l-13.25 0l0 22.78125q0 5.0 3.28125 8.265625q3.296875 3.265625 10.0625 3.265625zm11.995361 -41.0l0 47.109375l-7.0625 0l0 -47.109375l7.0625 0zm-3.53125 -6.546875q-4.78125 0 -4.78125 -4.59375q0 -4.59375 4.78125 -4.59375q4.78125 0 4.78125 4.59375q0 4.59375 -4.78125 4.59375zm34.369263 54.71875q-10.0625 0 -17.265625 -7.453125q-7.203125 -7.46875 -7.203125 -17.40625q0 -9.9375 7.296875 -17.1875q7.3125 -7.265625 17.59375 -7.265625q10.296875 0 17.546875 7.265625q7.265625 7.25 7.265625 17.234375q0 9.96875 -7.109375 17.390625q-7.09375 7.421875 -17.265625 7.421875l-0.859375 0zm18.15625 -24.609375q0 -7.296875 -5.234375 -12.65625q-5.21875 -5.359375 -12.453125 -5.359375q-7.21875 0 -12.546875 5.40625q-5.3125 5.40625 -5.3125 12.65625q0 7.234375 5.3125 12.5625q5.3125 5.3125 12.59375 5.3125q7.28125 0 12.453125 -5.3125q5.1875 -5.3125 5.1875 -12.609375zm19.259705 23.546875l-7.0625 0l0 -47.203125l7.0625 0l-2.0 10.734375q3.671875 -11.78125 16.703125 -11.78125q8.90625 0 14.953125 6.15625q6.0625 6.15625 6.0625 14.9375l0 27.15625l-7.078125 0l0 -27.15625q0 -5.828125 -4.09375 -10.109375q-4.078125 -4.296875 -9.875 -4.296875q-5.78125 0 -10.234375 4.3125q-4.4375 4.3125 -4.4375 10.09375l0 27.15625z" fill-rule="nonzero"></path><path fill="#000000" d="m206.69872 577.8319q-13.484375 -11.40625 -19.453125 -23.21875q-5.953125 -11.8125 -5.953125 -24.734375q0 -12.921875 5.90625 -24.640656q5.921875 -11.734375 19.5 -22.828125l0 8.546875q-18.234375 16.703125 -18.234375 39.15628q0 11.078125 4.609375 20.875q4.625 9.78125 13.625 17.890625l0 8.953125zm42.639862 -9.609375l-1.046875 0q-10.453125 0 -19.453125 -5.46875q-9.0 -5.46875 -14.21875 -14.515625q-5.203125 -9.046875 -5.203125 -19.265625q0 -16.09375 11.625 -27.671906q11.640625 -11.578125 27.828125 -11.578125q10.812485 0 21.48436 6.21875l0 8.484375q-11.640625 -7.921875 -21.48436 -7.921875q-13.296875 0 -22.796875 9.546875q-9.484375 9.5312805 -9.484375 22.87503q0 13.328125 9.484375 22.921875q9.5 9.578125 22.796875 9.578125q9.843735 0 21.48436 -7.921875l0 8.46875q-10.171875 6.25 -21.01561 6.25zm50.6017 0q-10.0625 0 -17.265625 -7.453125q-7.203125 -7.46875 -7.203125 -17.40625q0 -9.9375 7.296875 -17.1875q7.3125 -7.265625 17.59375 -7.265625q10.296875 0 17.546875 7.265625q7.265625 7.25 7.265625 17.234375q0 9.96875 -7.109375 17.390625q-7.09375 7.421875 -17.265625 7.421875l-0.859375 0zm18.15625 -24.609375q0 -7.296875 -5.234375 -12.65625q-5.21875 -5.359375 -12.453125 -5.359375q-7.21875 0 -12.546875 5.40625q-5.3125 5.40625 -5.3125 12.65625q0 7.234375 5.3125 12.5625q5.3125 5.3125 12.59375 5.3125q7.28125 0 12.453125 -5.3125q5.1875 -5.3125 5.1875 -12.609375zm43.947205 -18.625q-0.0625 0.21875 4.546875 -2.921875q4.625 -3.15625 11.1875 -3.15625q6.578125 0 11.59375 4.796875q5.015625 4.78125 5.015625 12.84375l0 30.609375l-7.078125 0l0 -30.609375q0 -4.75 -3.078125 -7.84375q-3.0625 -3.109375 -7.375 -3.109375q-4.296875 0 -7.6875 3.265625q-3.390625 3.25 -3.390625 7.5l0 30.796875l-7.078125 0l0 -30.796875q0 -4.375 -3.078125 -7.5625q-3.0625 -3.203125 -7.40625 -3.203125q-4.34375 0 -7.609375 3.25q-3.25 3.25 -3.25 7.515625l0 30.796875l-7.0625 0l0 -47.203125l7.0625 0l0 1.453125q-1.46875 2.203125 2.765625 -0.140625q4.234375 -2.359375 8.90625 -2.359375q4.671875 0 8.90625 3.203125q4.234375 3.203125 4.109375 2.875zm48.178467 -4.9375l0 47.109375l-7.0625 0l0 -47.109375l7.0625 0zm-3.53125 -6.546875q-4.78125 0 -4.78125 -4.5937805q0 -4.59375 4.78125 -4.59375q4.78125 0 4.78125 4.59375q0 4.5937805 -4.78125 4.5937805zm19.369263 53.65625l-7.0625 0l0 -47.203125l7.0625 0l-2.0 10.734375q3.671875 -11.78125 16.703125 -11.78125q8.90625 0 14.953125 6.15625q6.0625 6.15625 6.0625 14.9375l0 27.15625l-7.078125 0l0 -27.15625q0 -5.828125 -4.09375 -10.109375q-4.078125 -4.296875 -9.875 -4.296875q-5.78125 0 -10.234375 4.3125q-4.4375 4.3125 -4.4375 10.09375l0 27.15625zm83.366455 -47.203125l7.0625305 0l0 41.171875q0 11.9375 -6.7187805 18.96875q-6.703125 7.03125 -17.546875 7.03125q-5.921875 0 -11.546875 -2.71875q-5.625 -2.703125 -9.171875 -7.671875l2.0 -5.046875q3.984375 3.15625 8.828125 5.953125q4.859375 2.796875 9.890625 2.796875q7.59375 0 12.390625 -5.109375q4.8125 -5.109375 4.8125 -14.203125l2.0 -6.4375q-1.0625 6.71875 -7.140625 10.171875q-6.0625 3.453125 -12.546875 3.453125q-10.234375 0 -17.546875 -7.25q-7.296875 -7.265625 -7.296875 -17.40625q0 -10.140625 7.296875 -17.390625q7.3125 -7.265625 17.546875 -7.265625q6.78125 0 12.703125 3.40625q5.921875 3.40625 6.984375 10.296875l-2.0 -12.75zm-35.453125 23.703125q0 7.328125 5.3125 12.65625q5.3125 5.3125 12.59375 5.3125q7.28125 0 12.453125 -5.3125q5.1875 -5.3125 5.1875 -12.65625q0 -7.34375 -5.1875 -12.65625q-5.171875 -5.3125 -12.453125 -5.3125q-7.28125 0 -12.59375 5.328125q-5.3125 5.3125 -5.3125 12.640625zm116.06998 -40.328156q-3.703125 -2.59375 -7.03125 -4.609375q-3.3125 -2.03125 -7.359375 -2.03125q-4.046875 0 -6.734375 2.375q-2.6875 2.375 -2.6875 6.578125l0 0.46875q0 5.0625 5.90625 9.4375305q2.78125 2.046875 6.359375 4.09375q3.578125 2.046875 7.265625 4.46875q3.6875 2.40625 6.8125 5.234375q3.125 2.8125 5.1875 7.046875q2.0625 4.21875 2.0625 9.28125l0 0.953125q0 10.046875 -6.828125 15.96875q-6.8125 5.90625 -16.671875 5.90625q-13.0625 0 -20.625 -11.28125l2.0 -5.796875q4.09375 4.15625 8.453125 7.234375q4.359375 3.0625 10.875 3.0625q6.515625 0 11.15625 -4.0625q4.65625 -4.0625 4.65625 -10.84375l0 -0.5625q0 -4.234375 -2.234375 -7.796875q-2.21875 -3.5625 -5.78125 -5.96875q-3.546875 -2.421875 -7.953125 -5.203125q-4.40625 -2.78125 -8.328125 -5.28125q-3.921875 -2.515625 -6.703125 -6.578125q-2.78125 -4.0781555 -2.78125 -9.0156555l0 -0.671875q0 -7.671875 4.953125 -11.75q4.96875 -4.078125 12.015625 -4.078125q9.8125 0 16.015625 7.828125l-2.0 5.59375zm37.44861 64.890656q-10.0625 0 -17.265625 -7.453125q-7.203125 -7.46875 -7.203125 -17.40625q0 -9.9375 7.296875 -17.1875q7.3125 -7.265625 17.59375 -7.265625q10.296875 0 17.546875 7.265625q7.265625 7.25 7.265625 17.234375q0 9.96875 -7.109375 17.390625q-7.09375 7.421875 -17.265625 7.421875l-0.859375 0zm18.15625 -24.609375q0 -7.296875 -5.234375 -12.65625q-5.21875 -5.359375 -12.453125 -5.359375q-7.21875 0 -12.546875 5.40625q-5.3125 5.40625 -5.3125 12.65625q0 7.234375 5.3125 12.5625q5.3125 5.3125 12.59375 5.3125q7.28125 0 12.453125 -5.3125q5.1875 -5.3125 5.1875 -12.609375zm34.259705 24.609375q-10.0625 0 -17.265625 -7.453125q-7.203125 -7.46875 -7.203125 -17.40625q0 -9.9375 7.296875 -17.1875q7.3125 -7.265625 17.59375 -7.265625q10.296875 0 17.546875 7.265625q7.265625 7.25 7.265625 17.234375q0 9.96875 -7.109375 17.390625q-7.09375 7.421875 -17.265625 7.421875l-0.859375 0zm18.15625 -24.609375q0 -7.296875 -5.234375 -12.65625q-5.21875 -5.359375 -12.453125 -5.359375q-7.21875 0 -12.546875 5.40625q-5.3125 5.40625 -5.3125 12.65625q0 7.234375 5.3125 12.5625q5.3125 5.3125 12.59375 5.3125q7.28125 0 12.453125 -5.3125q5.1875 -5.3125 5.1875 -12.609375zm19.259705 23.546875l-7.0625 0l0 -47.203125l7.0625 0l-2.0 10.734375q3.671875 -11.78125 16.703125 -11.78125q8.90625 0 14.953125 6.15625q6.0625 6.15625 6.0625 14.9375l0 27.15625l-7.078125 0l0 -27.15625q0 -5.828125 -4.09375 -10.109375q-4.078125 -4.296875 -9.875 -4.296875q-5.78125 0 -10.234375 4.3125q-4.4375 4.3125 -4.4375 10.09375l0 27.15625zm42.47583 -82.25003q11.359375 9.0625 17.125 20.5625q5.78125 11.5000305 5.78125 24.515656q0 13.0 -5.96875 24.734375q-5.953125 11.71875 -19.53125 22.921875l0 -8.78125q9.09375 -8.015625 13.703125 -17.84375q4.625 -9.828125 4.625 -20.90625q0 -11.078125 -4.625 -20.953156q-4.609375 -9.875 -13.703125 -17.875l0 -4.96875l2.59375 -1.40625z" fill-rule="nonzero"></path></g></svg>

