<?xml version="1.0" standalone="yes"?>

<svg version="1.1" viewBox="0.0 0.0 960.0 720.0" fill="none" stroke="none" stroke-linecap="square" stroke-miterlimit="10" xmlns="http://www.w3.org/2000/svg" xmlns:xlink="http://www.w3.org/1999/xlink"><clipPath id="p.0"><path d="m0 0l960.0 0l0 720.0l-960.0 0l0 -720.0z" clip-rule="nonzero"></path></clipPath><g clip-path="url(#p.0)"><path fill="#000000" fill-opacity="0.0" d="m0 0l960.0 0l0 720.0l-960.0 0z" fill-rule="nonzero"></path><path fill="#ff0000" fill-opacity="0.7192" d="m0 120.0024l0 0c0 -66.2755 53.726906 -120.0024 120.0024 -120.0024l719.99524 0c31.8266 0 62.34973 12.643074 84.85449 35.14789c22.504822 22.504818 35.14795 53.0279 35.14795 84.854515l0 479.9952c0 66.27545 -53.72693 120.00238 -120.00244 120.00238l-719.99524 0l0 0c-66.2755 0 -120.0024 -53.72693 -120.0024 -120.00238z" fill-rule="nonzero"></path><path stroke="#000000" stroke-width="1.0" stroke-linejoin="round" stroke-linecap="butt" d="m0 120.0024l0 0c0 -66.2755 53.726906 -120.0024 120.0024 -120.0024l719.99524 0c31.8266 0 62.34973 12.643074 84.85449 35.14789c22.504822 22.504818 35.14795 53.0279 35.14795 84.854515l0 479.9952c0 66.27545 -53.72693 120.00238 -120.00244 120.00238l-719.99524 0l0 0c-66.2755 0 -120.0024 -53.72693 -120.0024 -120.00238z" fill-rule="nonzero"></path><path fill="#000000" d="m341.9072 261.15997l6.125 0q10.125 0 17.765625 7.453125q7.65625 7.4375 7.65625 17.546875q0 10.109375 -7.796875 17.5q-7.796875 7.390625 -16.859375 7.390625l0 -1.71875l28.75 27.828125l-9.640625 0l-18.9375 -19.84375l0 19.84375l-7.0625 0l0 -76.0zm6.796875 43.375l0 -0.265625q6.953125 0 12.3125 -5.359375q5.375 -5.375 5.375 -12.703125q0 -7.328125 -5.5625 -12.796875q-5.546875 -5.46875 -12.609375 -5.46875l0 -0.75l0.484375 37.34375zm54.431335 33.78125l-0.859375 0q-9.96875 0 -17.3125 -7.453125q-7.34375 -7.46875 -7.34375 -17.40625q0 -9.9375 7.296875 -17.1875q7.3125 -7.265625 18.0625 -7.265625q10.75 0 19.71875 9.953125l-29.90625 29.515625q3.9375 3.15625 9.078125 3.15625q5.15625 0 9.265625 -2.390625q4.125 -2.390625 10.515625 -11.84375l0 12.1875q-7.921875 8.734375 -18.515625 8.734375zm-0.96875 -42.625q-6.84375 0 -12.171875 5.328125q-5.3125 5.3125 -5.3125 12.203125q0 6.875 3.1875 10.484375l24.90625 -24.734375q-3.765625 -3.28125 -10.609375 -3.28125zm45.30124 35.640625l0 6.6875q-9.609375 0 -15.015625 -5.125q-5.390625 -5.125 -5.390625 -13.09375l0 -58.640625l7.0625 0l0 58.640625q0 5.015625 3.296875 8.28125q3.296875 3.25 10.046875 3.25zm50.783478 -41.375l0 47.203125l-7.0625 0l0.578125 -6.65625q0.265625 0.796875 -5.609375 4.265625q-5.859375 3.453125 -12.5625 3.453125q-10.234375 0 -17.546875 -7.25q-7.296875 -7.265625 -7.296875 -17.40625q0 -10.140625 7.296875 -17.390625q7.3125 -7.265625 17.546875 -7.265625q6.6875 0 12.828125 3.5625q6.140625 3.5625 5.609375 4.515625l-0.84375 -7.03125l7.0625 0zm-42.421875 23.703125q0 7.234375 5.3125 12.5625q5.3125 5.3125 12.59375 5.3125q7.28125 0 12.453125 -5.3125q5.1875 -5.3125 5.1875 -12.609375q0 -7.296875 -5.234375 -12.65625q-5.21875 -5.359375 -12.453125 -5.359375q-7.21875 0 -12.546875 5.40625q-5.3125 5.40625 -5.3125 12.65625zm69.40524 17.390625l0 6.6875q-9.609375 0 -15.015625 -5.125q-5.40625 -5.140625 -5.40625 -13.09375l0 -46.9375l7.078125 0l0 17.46875l13.25 0l0 6.6875l-13.25 0l0 22.78125q0 5.015625 3.296875 8.28125q3.296875 3.25 10.046875 3.25zm27.276672 7.265625l-0.859375 0q-9.968811 0 -17.312561 -7.453125q-7.34375 -7.46875 -7.34375 -17.40625q0 -9.9375 7.296875 -17.1875q7.3125 -7.265625 18.062561 -7.265625q10.75 0 19.71875 9.953125l-29.906311 29.515625q3.9375 3.15625 9.078186 3.15625q5.15625 0 9.265625 -2.390625q4.125 -2.390625 10.515625 -11.84375l0 12.1875q-7.921875 8.734375 -18.515625 8.734375zm-0.96875 -42.625q-6.843811 0 -12.171936 5.328125q-5.3125 5.3125 -5.3125 12.203125q0 6.875 3.1875 10.484375l24.906311 -24.734375q-3.765625 -3.28125 -10.609375 -3.28125zm71.98871 -34.53125l0 76.0l-7.0625 0l0.46875 -6.453125q0.125 0.71875 -5.828125 4.125q-5.9375 3.390625 -12.234375 3.390625q-10.328125 0 -17.59375 -7.25q-7.25 -7.265625 -7.25 -17.40625q0 -10.140625 7.25 -17.390625q7.265625 -7.265625 17.59375 -7.265625q6.484375 0 12.5 3.453125q6.03125 3.4375 5.71875 4.265625l-0.625 -35.46875l7.0625 0zm-42.421875 52.453125q0 7.296875 5.171875 12.609375q5.1875 5.3125 12.453125 5.3125q7.28125 0 12.59375 -5.3125q5.328125 -5.328125 5.328125 -12.5625q0 -7.25 -5.328125 -12.65625q-5.328125 -5.40625 -12.546875 -5.40625q-7.21875 0 -12.453125 5.359375q-5.21875 5.359375 -5.21875 12.65625z" fill-rule="nonzero"></path><path fill="#000000" d="m404.86005 456.44122l-34.625 -80.28125l7.90625 0l27.1875 62.890625l11.1875 -26.140625l-15.734375 -36.75l7.8125 0l12.046875 28.5l12.375 -28.5l7.046875 0l-15.84375 36.65625l11.46875 26.5625l27.765625 -63.21875l6.96875 0l-35.03125 80.265625l-15.265625 -35.140625l-15.265625 35.15625zm90.5361 -3.21875q-10.0625 0 -17.265625 -7.453125q-7.203125 -7.46875 -7.203125 -17.40625q0 -9.9375 7.296875 -17.1875q7.3125 -7.265625 17.59375 -7.265625q10.296875 0 17.546906 7.265625q7.265625 7.25 7.265625 17.234375q0 9.96875 -7.109375 17.390625q-7.0937805 7.421875 -17.265656 7.421875l-0.859375 0zm18.15628 -24.609375q0 -7.296875 -5.2344055 -12.65625q-5.21875 -5.359375 -12.453125 -5.359375q-7.21875 0 -12.546875 5.40625q-5.3125 5.40625 -5.3125 12.65625q0 7.234375 5.3125 12.5625q5.3125 5.3125 12.59375 5.3125q7.28125 0 12.453125 -5.3125q5.1875305 -5.3125 5.1875305 -12.609375zm41.447205 -10.984375q-7.0625 -7.03125 -11.328125 -7.03125q-4.265625 0 -7.5625 3.265625q-3.296875 3.25 -3.296875 7.5l0 30.796875l-7.0625 0l0 -47.203125l7.0625 0l-1.078125 4.734375q-0.6875 -1.0 3.4375 -3.390625q4.140625 -2.390625 9.234375 -2.390625q5.109375 0 10.59375 4.046875l0 9.671875zm4.15802 -41.28125l7.0625 0l0 41.1875l14.34375 -12.578125l10.015625 0l-22.21875 19.40625l26.546875 27.796875l-9.640625 0l-19.046875 -19.78125l0 19.78125l-7.0625 0l0 -75.8125z" fill-rule="nonzero"></path></g></svg>

