<?xml version="1.0" standalone="yes"?>

<svg version="1.1" viewBox="0.0 0.0 960.0 720.0" fill="none" stroke="none" stroke-linecap="square" stroke-miterlimit="10" xmlns="http://www.w3.org/2000/svg" xmlns:xlink="http://www.w3.org/1999/xlink"><clipPath id="p.0"><path d="m0 0l960.0 0l0 720.0l-960.0 0l0 -720.0z" clip-rule="nonzero"></path></clipPath><g clip-path="url(#p.0)"><path fill="#000000" fill-opacity="0.0" d="m0 0l960.0 0l0 720.0l-960.0 0z" fill-rule="nonzero"></path><path fill="#ff0000" fill-opacity="0.7192" d="m0 120.0024l0 0c0 -66.2755 53.726906 -120.0024 120.0024 -120.0024l719.99524 0c31.8266 0 62.34973 12.643074 84.85449 35.14789c22.504822 22.504818 35.14795 53.0279 35.14795 84.854515l0 479.9952c0 66.27545 -53.72693 120.00238 -120.00244 120.00238l-719.99524 0l0 0c-66.2755 0 -120.0024 -53.72693 -120.0024 -120.00238z" fill-rule="nonzero"></path><path stroke="#000000" stroke-width="1.0" stroke-linejoin="round" stroke-linecap="butt" d="m0 120.0024l0 0c0 -66.2755 53.726906 -120.0024 120.0024 -120.0024l719.99524 0c31.8266 0 62.34973 12.643074 84.85449 35.14789c22.504822 22.504818 35.14795 53.0279 35.14795 84.854515l0 479.9952c0 66.27545 -53.72693 120.00238 -120.00244 120.00238l-719.99524 0l0 0c-66.2755 0 -120.0024 -53.72693 -120.0024 -120.00238z" fill-rule="nonzero"></path><path fill="#000000" d="m197.57356 261.15997l5.15625 0q10.796875 0 18.390625 7.453125q7.609375 7.4375 7.609375 17.609375q0 10.171875 -7.859375 17.453125q-7.84375 7.28125 -17.359375 7.28125l0 -1.21875l1.21875 27.421875l-7.15625 0l0 -76.0zm5.9375 44.328125l0 -1.21875q7.234375 0 12.640625 -5.359375q5.421875 -5.375 5.421875 -12.703125q0 -7.34375 -5.515625 -12.796875q-5.515625 -5.46875 -12.546875 -5.46875l0 -1.21875l0 38.765625zm59.408737 -2.859375q-7.0625 -7.03125 -11.328125 -7.03125q-4.265625 0 -7.5625 3.265625q-3.296875 3.25 -3.296875 7.5l0 30.796875l-7.0625 0l0 -47.203125l7.0625 0l-1.078125 4.734375q-0.6875 -1.0 3.4375 -3.390625q4.140625 -2.390625 9.234375 -2.390625q5.109375 0 10.59375 4.046875l0 9.671875zm27.75174 35.6875l-0.859375 0q-9.96875 0 -17.3125 -7.453125q-7.34375 -7.46875 -7.34375 -17.40625q0 -9.9375 7.296875 -17.1875q7.3125 -7.265625 18.0625 -7.265625q10.75 0 19.71875 9.953125l-29.90625 29.515625q3.9375 3.15625 9.078125 3.15625q5.15625 0 9.265625 -2.390625q4.125 -2.390625 10.515625 -11.84375l0 12.1875q-7.921875 8.734375 -18.515625 8.734375zm-0.96875 -42.625q-6.84375 0 -12.171875 5.328125q-5.3125 5.3125 -5.3125 12.203125q0 6.875 3.1875 10.484375l24.90625 -24.734375q-3.765625 -3.28125 -10.609375 -3.28125zm36.30121 -0.1875q-1.765625 0 -3.0625 1.09375q-1.28125 1.078125 -1.28125 2.59375q0 1.5 1.75 3.140625q1.765625 1.640625 4.703125 3.28125q2.9375 1.625 6.1875 3.65625q3.265625 2.03125 5.71875 5.4375q2.46875 3.390625 2.46875 7.875q0 6.546875 -4.875 11.09375q-4.875 4.546875 -11.703125 4.546875q-4.328125 0 -8.125 -1.921875q-3.796875 -1.9375 -5.875 -5.71875l0 -14.421875q6.9375 15.375 13.703125 15.375q4.234375 0 7.015625 -2.515625q2.796875 -2.53125 2.796875 -5.515625q0 -2.984375 -1.828125 -5.15625q-1.8125 -2.1875 -4.734375 -3.921875q-2.921875 -1.734375 -6.09375 -3.59375q-3.171875 -1.875 -5.671875 -4.8125q-2.5 -2.953125 -2.5 -7.1875q0 -4.234375 3.359375 -7.125q3.359375 -2.90625 8.5 -2.90625q5.140625 0 9.3125 4.609375l0 11.296875q-6.140625 -9.203125 -9.765625 -9.203125zm45.211487 42.8125l-0.859375 0q-9.96875 0 -17.3125 -7.453125q-7.34375 -7.46875 -7.34375 -17.40625q0 -9.9375 7.296875 -17.1875q7.3125 -7.265625 18.0625 -7.265625q10.75 0 19.71875 9.953125l-29.90625 29.515625q3.9375 3.15625 9.078125 3.15625q5.15625 0 9.265625 -2.390625q4.125 -2.390625 10.515625 -11.84375l0 12.1875q-7.921875 8.734375 -18.515625 8.734375zm-0.96875 -42.625q-6.84375 0 -12.171875 5.328125q-5.3125 5.3125 -5.3125 12.203125q0 6.875 3.1875 10.484375l24.90625 -24.734375q-3.765625 -3.28125 -10.609375 -3.28125zm31.957458 41.46875l-7.0625 0l0 -47.203125l7.0625 0l0 2.28125q1.671875 -3.328125 14.703125 -3.328125q8.90625 0 14.953125 6.15625q6.0625 6.15625 6.0625 14.9375l0 27.15625l-7.078125 0l0 -27.15625q0 -5.828125 -4.09375 -10.109375q-4.078125 -4.296875 -9.875 -4.296875q-5.78125 0 -10.234375 4.3125q-4.4375 4.3125 -4.4375 10.09375l0 27.15625zm62.69461 -6.109375l0 6.6875q-9.609375 0 -15.015625 -5.125q-5.40625 -5.140625 -5.40625 -13.09375l0 -46.9375l7.078125 0l0 17.46875l13.25 0l0 6.6875l-13.25 0l0 22.78125q0 5.015625 3.296875 8.28125q3.296875 3.25 10.046875 3.25zm50.77661 -41.09375l0 47.203125l-7.0625 0l0.578125 -6.65625q0.265625 0.796875 -5.609375 4.265625q-5.859375 3.453125 -12.5625 3.453125q-10.234375 0 -17.546875 -7.25q-7.296875 -7.265625 -7.296875 -17.40625q0 -10.140625 7.296875 -17.390625q7.3125 -7.265625 17.546875 -7.265625q6.6875 0 12.828125 3.5625q6.140625 3.5625 5.609375 4.515625l-0.84375 -7.03125l7.0625 0zm-42.421875 23.703125q0 7.234375 5.3125 12.5625q5.3125 5.3125 12.59375 5.3125q7.28125 0 12.453125 -5.3125q5.1875 -5.3125 5.1875 -12.609375q0 -7.296875 -5.234375 -12.65625q-5.21875 -5.359375 -12.453125 -5.359375q-7.21875 0 -12.546875 5.40625q-5.3125 5.40625 -5.3125 12.65625zm69.40521 17.390625l0 6.6875q-9.609375 0 -15.015625 -5.125q-5.40625 -5.140625 -5.40625 -13.09375l0 -46.9375l7.078125 0l0 17.46875l13.25 0l0 6.6875l-13.25 0l0 22.78125q0 5.015625 3.296875 8.28125q3.296875 3.25 10.046875 3.25zm11.995361 -41.0l0 47.109375l-7.0625 0l0 -47.109375l7.0625 0zm-3.53125 -6.546875q-4.78125 0 -4.78125 -4.59375q0 -4.59375 4.78125 -4.59375q4.78125 0 4.78125 4.59375q0 4.59375 -4.78125 4.59375zm34.369263 54.71875q-10.0625 0 -17.265625 -7.453125q-7.203125 -7.46875 -7.203125 -17.40625q0 -9.9375 7.296875 -17.1875q7.3125 -7.265625 17.59375 -7.265625q10.296875 0 17.546875 7.265625q7.265625 7.25 7.265625 17.234375q0 9.96875 -7.109375 17.390625q-7.09375 7.421875 -17.265625 7.421875l-0.859375 0zm18.15625 -24.609375q0 -7.296875 -5.234375 -12.65625q-5.21875 -5.359375 -12.453125 -5.359375q-7.21875 0 -12.546875 5.40625q-5.3125 5.40625 -5.3125 12.65625q0 7.234375 5.3125 12.5625q5.3125 5.3125 12.59375 5.3125q7.28125 0 12.453125 -5.3125q5.1875 -5.3125 5.1875 -12.609375zm19.259766 23.546875l-7.0625 0l0 -47.203125l7.0625 0l0 2.28125q1.671875 -3.328125 14.703125 -3.328125q8.90625 0 14.953125 6.15625q6.0625 6.15625 6.0625 14.9375l0 27.15625l-7.078125 0l0 -27.15625q0 -5.828125 -4.09375 -10.109375q-4.078125 -4.296875 -9.875 -4.296875q-5.78125 0 -10.234375 4.3125q-4.4375 4.3125 -4.4375 10.09375l0 27.15625zm96.294556 -6.109375l0 6.6875q-9.609375 0 -15.015625 -5.125q-5.40625 -5.140625 -5.40625 -13.09375l0 -46.9375l7.078125 0l0 17.46875l13.25 0l0 6.6875l-13.25 0l0 22.78125q0 5.015625 3.296875 8.28125q3.296875 3.25 10.046875 3.25zm25.745361 7.171875q-10.0625 0 -17.265625 -7.453125q-7.203125 -7.46875 -7.203125 -17.40625q0 -9.9375 7.296875 -17.1875q7.3125 -7.265625 17.59375 -7.265625q10.296875 0 17.546875 7.265625q7.265625 7.25 7.265625 17.234375q0 9.96875 -7.109375 17.390625q-7.09375 7.421875 -17.265625 7.421875l-0.859375 0zm18.15625 -24.609375q0 -7.296875 -5.234375 -12.65625q-5.21875 -5.359375 -12.453125 -5.359375q-7.21875 0 -12.546875 5.40625q-5.3125 5.40625 -5.3125 12.65625q0 7.234375 5.3125 12.5625q5.3125 5.3125 12.59375 5.3125q7.28125 0 12.453125 -5.3125q5.1875 -5.3125 5.1875 -12.609375z" fill-rule="nonzero"></path><path fill="#000000" d="m335.9785 453.22247l-1.046875 0q-10.453125 0 -19.46875 -5.46875q-9.0 -5.46875 -14.203125 -14.515625q-5.203125 -9.046875 -5.203125 -19.265625q0 -16.09375 11.625 -27.671875q11.640625 -11.578125 27.828125 -11.578125q10.8125 0 21.484375 6.21875l0 8.484375q-11.640625 -7.921875 -21.484375 -7.921875q-13.296875 0 -22.796875 9.546875q-9.484375 9.53125 -9.484375 22.875q0 13.328125 9.484375 22.921875q9.5 9.578125 22.796875 9.578125q9.84375 0 21.484375 -7.921875l0 8.46875q-10.171875 6.25 -21.015625 6.25zm63.289215 -48.265625l7.0625 0l0 47.203125l-7.0625 0l0 -2.28125q-1.671875 3.34375 -14.703125 3.34375q-8.90625 0 -14.96875 -6.15625q-6.046875 -6.171875 -6.046875 -14.953125l0 -27.15625l7.078125 0l0 27.15625q0 5.828125 4.078125 10.125q4.09375 4.296875 9.875 4.296875q5.796875 0 10.234375 -4.3125q4.453125 -4.328125 4.453125 -10.109375l0 -27.15625zm25.040222 5.546875q-1.765625 0 -3.0625 1.09375q-1.28125 1.078125 -1.28125 2.59375q0 1.5 1.75 3.140625q1.765625 1.640625 4.703125 3.28125q2.9375 1.625 6.1875 3.65625q3.265625 2.03125 5.71875 5.4375q2.46875 3.390625 2.46875 7.875q0 6.546875 -4.875 11.09375q-4.875 4.546875 -11.703125 4.546875q-4.328125 0 -8.125 -1.921875q-3.796875 -1.9375 -5.875 -5.71875l0 -14.421875q6.9375 15.375 13.703125 15.375q4.234375 0 7.015625 -2.515625q2.796875 -2.53125 2.796875 -5.515625q0 -2.984375 -1.828125 -5.15625q-1.8125 -2.1875 -4.734375 -3.921875q-2.921875 -1.734375 -6.09375 -3.59375q-3.171875 -1.875 -5.671875 -4.8125q-2.5 -2.953125 -2.5 -7.1875q0 -4.234375 3.359375 -7.125q3.359375 -2.90625 8.5 -2.90625q5.140625 0 9.3125 4.609375l0 11.296875q-6.140625 -9.203125 -9.765625 -9.203125zm41.07086 35.546875l0 6.6875q-9.609375 0 -15.015625 -5.125q-5.40625 -5.140625 -5.40625 -13.09375l0 -46.9375l7.078125 0l0 17.46875l13.25 0l0 6.6875l-13.25 0l0 22.78125q0 5.015625 3.296875 8.28125q3.296875 3.25 10.046875 3.25zm25.745361 7.171875q-10.0625 0 -17.265625 -7.453125q-7.203125 -7.46875 -7.203125 -17.40625q0 -9.9375 7.296875 -17.1875q7.3125 -7.265625 17.59375 -7.265625q10.296875 0 17.546875 7.265625q7.265625 7.25 7.265625 17.234375q0 9.96875 -7.109375 17.390625q-7.09375 7.421875 -17.265625 7.421875l-0.859375 0zm18.15625 -24.609375q0 -7.296875 -5.234375 -12.65625q-5.21875 -5.359375 -12.453125 -5.359375q-7.21875 0 -12.546875 5.40625q-5.3125 5.40625 -5.3125 12.65625q0 7.234375 5.3125 12.5625q5.3125 5.3125 12.59375 5.3125q7.28125 0 12.453125 -5.3125q5.1875 -5.3125 5.1875 -12.609375zm43.978516 -17.640625q-0.09375 -0.765625 4.53125 -3.90625q4.625 -3.15625 11.1875 -3.15625q6.5625 0 11.578125 4.796875q5.015625 4.78125 5.015625 12.84375l0 30.609375l-7.078125 0l0 -30.609375q0 -4.734375 -3.0625 -7.84375q-3.0625 -3.109375 -7.375 -3.109375q-4.3125 0 -7.703125 3.265625q-3.390625 3.25 -3.390625 7.5l0 30.796875l-7.078125 0l0 -30.796875q0 -4.375 -3.078125 -7.5625q-3.0625 -3.203125 -7.40625 -3.203125q-4.34375 0 -7.609375 3.25q-3.25 3.25 -3.25 7.515625l0 30.796875l-7.0625 0l0 -47.203125l7.0625 0l-0.953125 4.59375q-0.515625 -0.9375 3.71875 -3.28125q4.234375 -2.359375 8.90625 -2.359375q4.671875 0 8.90625 3.203125q4.234375 3.203125 4.140625 3.859375zm63.428467 42.34375l-0.859375 0q-9.96875 0 -17.3125 -7.453125q-7.34375 -7.46875 -7.34375 -17.40625q0 -9.9375 7.296875 -17.1875q7.3125 -7.265625 18.0625 -7.265625q10.75 0 19.71875 9.953125l-29.90625 29.515625q3.9375 3.15625 9.078125 3.15625q5.15625 0 9.265625 -2.390625q4.125 -2.390625 10.515625 -11.84375l0 12.1875q-7.921875 8.734375 -18.515625 8.734375zm-0.96875 -42.625q-6.84375 0 -12.171875 5.328125q-5.3125 5.3125 -5.3125 12.203125q0 6.875 3.1875 10.484375l24.90625 -24.734375q-3.765625 -3.28125 -10.609375 -3.28125zm54.14496 6.9375q-7.0625 -7.03125 -11.328125 -7.03125q-4.265625 0 -7.5625 3.265625q-3.296875 3.25 -3.296875 7.5l0 30.796875l-7.0625 0l0 -47.203125l7.0625 0l-1.078125 4.734375q-0.6875 -1.0 3.4375 -3.390625q4.140625 -2.390625 9.234375 -2.390625q5.109375 0 10.59375 4.046875l0 9.671875z" fill-rule="nonzero"></path></g></svg>

