<?xml version="1.0" standalone="yes"?>

<svg version="1.1" viewBox="0.0 0.0 960.0 720.0" fill="none" stroke="none" stroke-linecap="square" stroke-miterlimit="10" xmlns="http://www.w3.org/2000/svg" xmlns:xlink="http://www.w3.org/1999/xlink"><clipPath id="p.0"><path d="m0 0l960.0 0l0 720.0l-960.0 0l0 -720.0z" clip-rule="nonzero"></path></clipPath><g clip-path="url(#p.0)"><path fill="#000000" fill-opacity="0.0" d="m0 0l960.0 0l0 720.0l-960.0 0z" fill-rule="nonzero"></path><path fill="#6d9eeb" d="m395.66165 426.60458l0 0c-2.8460083 -16.11206 6.4980164 -32.062042 24.067047 -41.081757c17.569061 -9.019714 40.28189 -9.527283 58.50061 -1.307373l0 0c6.453644 -9.368225 18.265686 -15.836334 31.86319 -17.447876c13.597504 -1.6115112 27.383453 1.8228455 37.187775 9.264221l0 0c5.4976807 -8.493835 16.29248 -14.200592 28.553772 -15.095245c12.2612915 -0.8946533 24.253906 3.1494446 31.722168 10.697205l0 0c9.932312 -9.0034485 25.734924 -12.7942505 40.569885 -9.732147c14.835022 3.0621033 26.037903 12.427155 28.761108 24.042847l0 0c12.168762 2.5570068 22.305115 9.0572815 27.7901 17.82135c5.4850464 8.764069 5.7805786 18.93222 0.8104248 27.877289l0 0c11.982666 12.014191 14.785767 28.02298 7.363098 42.052155c-7.4226685 14.029175 -23.95581 23.971008 -43.429688 26.115387c-0.13720703 13.16684 -9.510925 25.248627 -24.507996 31.58847c-14.99707 6.3397827 -33.275757 5.947693 -47.790527 -1.0252075c-6.182556 15.769592 -23.58435 27.372742 -44.687134 29.796387c-21.102783 2.423645 -42.123535 -4.7666016 -53.9805 -18.464417c-14.534119 6.751709 -31.973877 8.696655 -48.385162 5.396118c-16.411316 -3.300537 -30.411774 -11.5685425 -38.84317 -22.938843l0 0c-14.852051 1.3388672 -29.211945 -4.5889893 -35.95288 -14.841583c-6.740967 -10.252594 -4.428009 -22.64743 5.7909546 -31.03299l0 0c-13.248413 -6.0069885 -20.008545 -17.92691 -16.75528 -29.543915c3.253296 -11.617035 15.782806 -20.298737 31.05487 -21.517944z" fill-rule="nonzero"></path><path fill="#000000" fill-opacity="0.0" d="m381.06848 478.28745l0 0c6.2519836 2.8347168 13.474457 4.1206055 20.697723 3.685028m9.4609375 42.19055c3.1062927 -0.2800293 6.1510315 -0.8730469 9.055695 -1.7636719m78.168304 19.305664c-2.1847534 -2.5239258 -4.013916 -5.2209473 -5.4563904 -8.045166m104.12781 -3.2872925l0 0c1.1271362 -2.875061 1.8574219 -5.8341064 2.178711 -8.827759m70.117065 -21.734406c0.1461792 -14.018158 -10.18927 -26.853363 -26.566895 -32.992462m62.633118 -35.173584c-2.6522827 4.7734375 -6.701355 9.007904 -11.829651 12.371368m-16.768372 -58.07126l0 0c0.4519043 1.9276123 0.6610718 3.8842163 0.6245117 5.842682m-69.954346 -20.152802l0 0c-2.4776 2.2459106 -4.51886 4.755707 -6.0601196 7.4512024m-54.21631 -3.0541382l0 0c-1.3203735 2.0399475 -2.3063354 4.198578 -2.9351807 6.426117m-66.11682 1.7576904l0 0c3.855072 1.7393494 7.421509 3.8328247 10.621033 6.234436m-93.18765 36.154938l0 0c0.39224243 2.2206726 1.0120239 4.4139404 1.8535461 6.559326" fill-rule="nonzero"></path><path stroke="#000000" stroke-width="8.0" stroke-linejoin="round" stroke-linecap="butt" d="m395.66165 426.60458l0 0c-2.8460083 -16.11206 6.4980164 -32.062042 24.067047 -41.081757c17.569061 -9.019714 40.28189 -9.527283 58.50061 -1.307373l0 0c6.453644 -9.368225 18.265686 -15.836334 31.86319 -17.447876c13.597504 -1.6115112 27.383453 1.8228455 37.187775 9.264221l0 0c5.4976807 -8.493835 16.29248 -14.200592 28.553772 -15.095245c12.2612915 -0.8946533 24.253906 3.1494446 31.722168 10.697205l0 0c9.932312 -9.0034485 25.734924 -12.7942505 40.569885 -9.732147c14.835022 3.0621033 26.037903 12.427155 28.761108 24.042847l0 0c12.168762 2.5570068 22.305115 9.0572815 27.7901 17.82135c5.4850464 8.764069 5.7805786 18.93222 0.8104248 27.877289l0 0c11.982666 12.014191 14.785767 28.02298 7.363098 42.052155c-7.4226685 14.029175 -23.95581 23.971008 -43.429688 26.115387c-0.13720703 13.16684 -9.510925 25.248627 -24.507996 31.58847c-14.99707 6.3397827 -33.275757 5.947693 -47.790527 -1.0252075c-6.182556 15.769592 -23.58435 27.372742 -44.687134 29.796387c-21.102783 2.423645 -42.123535 -4.7666016 -53.9805 -18.464417c-14.534119 6.751709 -31.973877 8.696655 -48.385162 5.396118c-16.411316 -3.300537 -30.411774 -11.5685425 -38.84317 -22.938843l0 0c-14.852051 1.3388672 -29.211945 -4.5889893 -35.95288 -14.841583c-6.740967 -10.252594 -4.428009 -22.64743 5.7909546 -31.03299l0 0c-13.248413 -6.0069885 -20.008545 -17.92691 -16.75528 -29.543915c3.253296 -11.617035 15.782806 -20.298737 31.05487 -21.517944z" fill-rule="nonzero"></path><path stroke="#000000" stroke-width="8.0" stroke-linejoin="round" stroke-linecap="butt" d="m381.06848 478.28745l0 0c6.2519836 2.8347168 13.474457 4.1206055 20.697723 3.685028m9.4609375 42.19055c3.1062927 -0.2800293 6.1510315 -0.8730469 9.055695 -1.7636719m78.168304 19.305664c-2.1847534 -2.5239258 -4.013916 -5.2209473 -5.4563904 -8.045166m104.12781 -3.2872925l0 0c1.1271362 -2.875061 1.8574219 -5.8341064 2.178711 -8.827759m70.117065 -21.734406c0.1461792 -14.018158 -10.18927 -26.853363 -26.566895 -32.992462m62.633118 -35.173584c-2.6522827 4.7734375 -6.701355 9.007904 -11.829651 12.371368m-16.768372 -58.07126l0 0c0.4519043 1.9276123 0.6610718 3.8842163 0.6245117 5.842682m-69.954346 -20.152802l0 0c-2.4776 2.2459106 -4.51886 4.755707 -6.0601196 7.4512024m-54.21631 -3.0541382l0 0c-1.3203735 2.0399475 -2.3063354 4.198578 -2.9351807 6.426117m-66.11682 1.7576904l0 0c3.855072 1.7393494 7.421509 3.8328247 10.621033 6.234436m-93.18765 36.154938l0 0c0.39224243 2.2206726 1.0120239 4.4139404 1.8535461 6.559326" fill-rule="nonzero"></path><path fill="#ffffff" d="m455.2144 471.93698l0 0c-87.17401 -33.215363 -131.59302 -129.08286 -99.212616 -214.126q41.331482 -108.551956 17.9617 -241.75664q87.23889 105.5169 198.51077 147.91412l0 0c87.17401 33.215363 131.59302 129.08284 99.212585 214.12599l0 0c-32.380432 85.04315 -129.2984 127.05789 -216.47244 93.84253z" fill-rule="nonzero"></path><path stroke="#000000" stroke-width="12.0" stroke-linejoin="round" stroke-linecap="butt" d="m455.2144 471.93698l0 0c-87.17401 -33.215363 -131.59302 -129.08286 -99.212616 -214.126q41.331482 -108.551956 17.9617 -241.75664q87.23889 105.5169 198.51077 147.91412l0 0c87.17401 33.215363 131.59302 129.08284 99.212585 214.12599l0 0c-32.380432 85.04315 -129.2984 127.05789 -216.47244 93.84253z" fill-rule="nonzero"></path><path fill="#6d9eeb" d="m338.9449 311.31497l0 0c0 -94.2798 78.30432 -170.70868 174.89764 -170.70868l0 0c46.385742 0 90.87164 17.985336 123.671265 49.99942c32.799683 32.014084 51.22638 75.43451 51.22638 120.70926l0 0c0 94.279785 -78.30438 170.70865 -174.89764 170.70865l0 0c-96.59332 0 -174.89764 -76.42886 -174.89764 -170.70865z" fill-rule="nonzero"></path><path stroke="#000000" stroke-width="1.0" stroke-linejoin="round" stroke-linecap="butt" d="m338.9449 311.31497l0 0c0 -94.2798 78.30432 -170.70868 174.89764 -170.70868l0 0c46.385742 0 90.87164 17.985336 123.671265 49.99942c32.799683 32.014084 51.22638 75.43451 51.22638 120.70926l0 0c0 94.279785 -78.30438 170.70865 -174.89764 170.70865l0 0c-96.59332 0 -174.89764 -76.42886 -174.89764 -170.70865z" fill-rule="nonzero"></path><path fill="#ffffff" d="m688.7428 317.95276l0 0c0 58.713257 -32.878296 112.94992 -86.21124 142.21555c-53.332947 29.265656 -118.9877 29.097565 -172.15533 -0.44076538c-53.167664 -29.53833 -85.74057 -83.942566 -85.41049 -142.655l171.8873 0.8802185z" fill-rule="nonzero"></path><path stroke="#000000" stroke-width="1.0" stroke-linejoin="round" stroke-linecap="butt" d="m688.7428 317.95276l0 0c0 58.713257 -32.878296 112.94992 -86.21124 142.21555c-53.332947 29.265656 -118.9877 29.097565 -172.15533 -0.44076538c-53.167664 -29.53833 -85.74057 -83.942566 -85.41049 -142.655l171.8873 0.8802185z" fill-rule="nonzero"></path><path fill="#000000" d="m335.27036 311.31494l0 0c0 -100.628876 80.64514 -182.20471 180.12595 -182.20471l0 0c47.7724 0 93.588135 19.196518 127.36835 53.36653c33.78015 34.170013 52.75769 80.51451 52.75769 128.83818l0 0c0 100.62891 -80.6452 182.20471 -180.12604 182.20471l0 0c-99.480804 0 -180.12595 -81.575806 -180.12595 -182.20471zm12.464691 0l0 0c0 93.74481 75.064514 169.74002 167.66125 169.74002c92.5968 0 167.66132 -75.99521 167.66132 -169.74002l0 0c0 -93.7448 -75.064514 -169.73999 -167.66132 -169.73999l0 0c-92.59674 0 -167.66125 75.99519 -167.66125 169.73999z" fill-rule="nonzero"></path><path stroke="#000000" stroke-width="1.0" stroke-linejoin="round" stroke-linecap="butt" d="m335.27036 311.31494l0 0c0 -100.628876 80.64514 -182.20471 180.12595 -182.20471l0 0c47.7724 0 93.588135 19.196518 127.36835 53.36653c33.78015 34.170013 52.75769 80.51451 52.75769 128.83818l0 0c0 100.62891 -80.6452 182.20471 -180.12604 182.20471l0 0c-99.480804 0 -180.12595 -81.575806 -180.12595 -182.20471zm12.464691 0l0 0c0 93.74481 75.064514 169.74002 167.66125 169.74002c92.5968 0 167.66132 -75.99521 167.66132 -169.74002l0 0c0 -93.7448 -75.064514 -169.73999 -167.66132 -169.73999l0 0c-92.59674 0 -167.66125 75.99519 -167.66125 169.73999z" fill-rule="nonzero"></path><path fill="#000000" d="m337.35434 309.24146l352.97635 0l0 11.464569l-352.97635 0z" fill-rule="nonzero"></path><path stroke="#000000" stroke-width="1.0" stroke-linejoin="round" stroke-linecap="butt" d="m337.35434 309.24146l352.97635 0l0 11.464569l-352.97635 0z" fill-rule="nonzero"></path><path fill="#000000" fill-opacity="0.0" d="m384.76642 206.09448l268.0 0l0 72.53543l-268.0 0z" fill-rule="nonzero"></path><path fill="#000000" d="m461.80432 219.79346l12.515625 34.0l13.546875 -34.0l13.71875 0l-19.671875 48.96875l-14.6875 0l-12.796875 -32.9375l-12.765625 32.9375l-14.6875 0l-19.703125 -48.96875l13.75 0l13.265625 33.28125l12.796875 -33.28125l14.71875 0zm103.22296 46.546875q-6.015625 2.0 -12.03125 2.859375q-6.0 0.875 -12.265625 0.875q-8.03125 0 -14.28125 -1.71875q-6.25 -1.734375 -10.53125 -5.015625q-4.2812195 -3.28125 -6.5312195 -8.015625q-2.234375 -4.734375 -2.234375 -10.734375q0 -5.5625 2.25 -10.3125q2.265625 -4.765625 6.4218445 -8.265625q4.15625 -3.515625 10.03125 -5.484375q5.890625 -1.984375 13.125 -1.984375q6.65625 0 12.203125 1.796875q5.546875 1.796875 9.515625 5.328125q3.984375 3.53125 6.171875 8.703125q2.1875 5.15625 2.1875 11.90625l0 3.265625l-48.265625 0q0.640625 2.328125 2.125 4.25q1.484375 1.921875 4.015625 3.28125q2.53125 1.34375 6.21875 2.09375q3.6875 0.75 8.8125 0.75q3.640625 0 7.125 -0.4375q3.5 -0.453125 6.53125 -1.171875q3.03125 -0.734375 5.46875 -1.625q2.453125 -0.890625 3.9375 -1.78125l0 11.4375zm-9.125 -26.484375q-0.171875 -1.8125 -1.078125 -3.75q-0.90625 -1.953125 -2.875 -3.515625q-1.953125 -1.578125 -5.125 -2.59375q-3.171875 -1.015625 -7.921875 -1.015625q-4.453125 0 -7.703125 1.109375q-3.234375 1.109375 -5.4375 2.75q-2.1875 1.625 -3.40625 3.515625q-1.203125 1.890625 -1.5625 3.5l35.109375 0zm52.933777 -9.40625l0 38.3125l-13.21875 0l0 -38.3125l-20.78125 0l0 -10.65625l54.8125 0l0 10.65625l-20.8125 0z" fill-rule="nonzero"></path><path fill="#000000" fill-opacity="0.0" d="m363.7953 278.6299l314.96063 0l0 209.79529l-314.96063 0z" fill-rule="nonzero"></path><path fill="#000000" d="m444.81732 374.74005q-1.390625 -0.671875 -3.671875 -1.515625q-2.28125 -0.859375 -5.171875 -1.625q-2.890625 -0.78125 -6.28125 -1.296875q-3.375 -0.515625 -6.953125 -0.515625q-2.84375 0 -4.859375 0.1875q-2.015625 0.171875 -3.390625 0.46875q-1.359375 0.28125 -2.171875 0.65625q-0.796875 0.375 -1.234375 0.765625q-0.421875 0.390625 -0.546875 0.78125q-0.125 0.390625 -0.125 0.703125q0 1.078125 1.0625 1.890625q1.078125 0.796875 2.921875 1.421875q1.859375 0.609375 4.3125 1.171875q2.46875 0.546875 5.234375 1.140625q2.765625 0.578125 5.703125 1.28125q2.9375 0.6875 5.703125 1.625q2.765625 0.921875 5.21875 2.15625q2.453125 1.21875 4.3125 2.859375q1.859375 1.640625 2.921875 3.78125q1.078125 2.140625 1.078125 4.890625q0 3.515625 -1.25 6.046875q-1.25 2.53125 -3.34375 4.28125q-2.078125 1.75 -4.828125 2.8125q-2.734375 1.046875 -5.75 1.609375q-3.015625 0.578125 -6.09375 0.75q-3.078125 0.171875 -5.859375 0.171875q-7.28125 0 -13.46875 -1.1875q-6.171875 -1.1875 -10.921875 -2.984375l0 -11.6875q4.890625 2.71875 11.140625 4.25q6.25 1.53125 13.390625 1.53125q4.203125 0 6.859375 -0.4375q2.65625 -0.453125 4.140625 -1.140625q1.5 -0.703125 2.03125 -1.515625q0.546875 -0.828125 0.546875 -1.578125q0 -1.171875 -1.078125 -2.046875q-1.0625 -0.875 -2.921875 -1.53125q-1.84375 -0.671875 -4.3125 -1.21875q-2.453125 -0.546875 -5.21875 -1.09375q-2.765625 -0.5625 -5.6875 -1.203125q-2.921875 -0.640625 -5.6875 -1.515625q-2.75 -0.875 -5.21875 -2.03125q-2.453125 -1.15625 -4.3125 -2.734375q-1.84375 -1.59375 -2.921875 -3.671875q-1.0625 -2.09375 -1.0625 -4.84375q0 -3.234375 1.140625 -5.578125q1.140625 -2.359375 3.078125 -4.015625q1.9375 -1.671875 4.484375 -2.703125q2.5625 -1.03125 5.375 -1.59375q2.8125 -0.578125 5.703125 -0.78125q2.890625 -0.21875 5.484375 -0.21875q2.859375 0 5.859375 0.28125q3.015625 0.28125 5.9375 0.796875q2.921875 0.515625 5.640625 1.203125q2.734375 0.671875 5.0625 1.421875l0 11.328125zm80.22803 10.734375q0 6.3125 -2.328125 11.140625q-2.3125 4.828125 -6.625 8.078125q-4.3125 3.234375 -10.46875 4.890625q-6.140625 1.65625 -13.8125 1.65625q-7.65625 0 -13.84375 -1.65625q-6.1875 -1.65625 -10.53125 -4.890625q-4.34375 -3.25 -6.703125 -8.078125q-2.34375 -4.828125 -2.34375 -11.140625q0 -6.3125 2.34375 -11.140625q2.359375 -4.828125 6.703125 -8.0625q4.34375 -3.25 10.53125 -4.90625q6.1875 -1.65625 13.84375 -1.65625q7.671875 0 13.8125 1.65625q6.15625 1.65625 10.46875 4.90625q4.3125 3.234375 6.625 8.0625q2.328125 4.828125 2.328125 11.140625zm-13.375 0q0 -2.75 -0.875 -5.46875q-0.875 -2.734375 -3.109375 -4.90625q-2.21875 -2.171875 -6.078125 -3.515625q-3.84375 -1.359375 -9.796875 -1.359375q-3.984375 0 -7.015625 0.625q-3.03125 0.625 -5.25 1.734375q-2.203125 1.09375 -3.703125 2.578125q-1.484375 1.46875 -2.375 3.171875q-0.890625 1.6875 -1.265625 3.53125q-0.375 1.828125 -0.375 3.609375q0 1.8125 0.375 3.671875q0.375 1.859375 1.265625 3.546875q0.890625 1.6875 2.375 3.15625q1.5 1.453125 3.703125 2.546875q2.21875 1.09375 5.25 1.71875q3.03125 0.609375 7.015625 0.609375q5.953125 0 9.796875 -1.34375q3.859375 -1.359375 6.078125 -3.53125q2.234375 -2.171875 3.109375 -4.890625q0.875 -2.734375 0.875 -5.484375zm48.887817 -14.078125q-2.3125 0 -4.15625 0.1875q-1.828125 0.171875 -3.109375 0.84375q-1.28125 0.671875 -1.96875 2.015625q-0.671875 1.34375 -0.671875 3.65625l0 1.8125l36.921875 0l0 10.453125l-36.921875 0l0 19.5625l-13.234375 0l0 -32.9375q0 -3.78125 1.125 -6.765625q1.125 -3.0 3.765625 -5.046875q2.640625 -2.046875 6.984375 -3.125q4.34375 -1.09375 10.84375 -1.09375l29.1875 0l0 10.4375l-28.765625 0zm67.83014 0.21875l0 38.3125l-13.21875 0l0 -38.3125l-20.78125 0l0 -10.65625l54.8125 0l0 10.65625l-20.8125 0z" fill-rule="nonzero"></path></g></svg>

